<?xml version="1.0" encoding="UTF-8"?>
<svg version="1.1" xmlns="http://www.w3.org/2000/svg" width="370" height="370">
<path d="M0 0 C122.1 0 244.2 0 370 0 C370 122.1 370 244.2 370 370 C247.9 370 125.8 370 0 370 C0 247.9 0 125.8 0 0 Z " fill="#FFFFFF" transform="translate(0,0)"/>
<path d="M0 0 C19.8 0 39.6 0 60 0 C60 3.3 60 6.6 60 10 C69.9 10 79.8 10 90 10 C90 13.3 90 16.6 90 20 C93.3 20 96.6 20 100 20 C100 26.6 100 33.2 100 40 C96.7 40 93.4 40 90 40 C90 43.3 90 46.6 90 50 C86.7 50 83.4 50 80 50 C80 53.3 80 56.6 80 60 C76.7 60 73.4 60 70 60 C70 63.3 70 66.6 70 70 C73.3 70 76.6 70 80 70 C80 73.3 80 76.6 80 80 C83.3 80 86.6 80 90 80 C90 83.3 90 86.6 90 90 C93.3 90 96.6 90 100 90 C100 93.3 100 96.6 100 100 C96.7 100 93.4 100 90 100 C90 103.3 90 106.6 90 110 C99.9 110 109.8 110 120 110 C120 100.1 120 90.2 120 80 C126.6 80 133.2 80 140 80 C140 83.3 140 86.6 140 90 C143.3 90 146.6 90 150 90 C150 93.3 150 96.6 150 100 C153.3 100 156.6 100 160 100 C160 96.7 160 93.4 160 90 C163.3 90 166.6 90 170 90 C170 86.7 170 83.4 170 80 C166.7 80 163.4 80 160 80 C160 73.4 160 66.8 160 60 C163.3 60 166.6 60 170 60 C170 56.7 170 53.4 170 50 C176.6 50 183.2 50 190 50 C190 46.7 190 43.4 190 40 C183.4 40 176.8 40 170 40 C170 33.4 170 26.8 170 20 C176.6 20 183.2 20 190 20 C190 23.3 190 26.6 190 30 C193.3 30 196.6 30 200 30 C200 36.6 200 43.2 200 50 C213.2 50 226.4 50 240 50 C240 43.4 240 36.8 240 30 C246.6 30 253.2 30 260 30 C260 43.2 260 56.4 260 70 C256.7 70 253.4 70 250 70 C250 76.6 250 83.2 250 90 C246.7 90 243.4 90 240 90 C240 86.7 240 83.4 240 80 C236.7 80 233.4 80 230 80 C230 73.4 230 66.8 230 60 C226.7 60 223.4 60 220 60 C220 66.6 220 73.2 220 80 C206.8 80 193.6 80 180 80 C180 83.3 180 86.6 180 90 C183.3 90 186.6 90 190 90 C190 93.3 190 96.6 190 100 C183.4 100 176.8 100 170 100 C170 106.6 170 113.2 170 120 C173.3 120 176.6 120 180 120 C180 116.7 180 113.4 180 110 C183.3 110 186.6 110 190 110 C190 113.3 190 116.6 190 120 C193.3 120 196.6 120 200 120 C200 116.7 200 113.4 200 110 C203.3 110 206.6 110 210 110 C210 106.7 210 103.4 210 100 C206.7 100 203.4 100 200 100 C200 96.7 200 93.4 200 90 C206.6 90 213.2 90 220 90 C220 103.2 220 116.4 220 130 C223.3 130 226.6 130 230 130 C230 123.4 230 116.8 230 110 C233.3 110 236.6 110 240 110 C240 113.3 240 116.6 240 120 C243.3 120 246.6 120 250 120 C250 113.4 250 106.8 250 100 C253.3 100 256.6 100 260 100 C260 109.9 260 119.8 260 130 C253.4 130 246.8 130 240 130 C240 133.3 240 136.6 240 140 C236.7 140 233.4 140 230 140 C230 146.6 230 153.2 230 160 C226.7 160 223.4 160 220 160 C220 163.3 220 166.6 220 170 C226.6 170 233.2 170 240 170 C240 173.3 240 176.6 240 180 C243.3 180 246.6 180 250 180 C250 176.7 250 173.4 250 170 C253.3 170 256.6 170 260 170 C260 179.9 260 189.8 260 200 C256.7 200 253.4 200 250 200 C250 196.7 250 193.4 250 190 C246.7 190 243.4 190 240 190 C240 193.3 240 196.6 240 200 C236.7 200 233.4 200 230 200 C230 203.3 230 206.6 230 210 C223.4 210 216.8 210 210 210 C210 206.7 210 203.4 210 200 C206.7 200 203.4 200 200 200 C200 203.3 200 206.6 200 210 C190.1 210 180.2 210 170 210 C170 206.7 170 203.4 170 200 C163.4 200 156.8 200 150 200 C150 196.7 150 193.4 150 190 C146.7 190 143.4 190 140 190 C140 193.3 140 196.6 140 200 C136.7 200 133.4 200 130 200 C130 196.7 130 193.4 130 190 C126.7 190 123.4 190 120 190 C120 193.3 120 196.6 120 200 C113.4 200 106.8 200 100 200 C100 203.3 100 206.6 100 210 C93.4 210 86.8 210 80 210 C80 206.7 80 203.4 80 200 C73.4 200 66.8 200 60 200 C60 193.4 60 186.8 60 180 C56.7 180 53.4 180 50 180 C50 163.5 50 147 50 130 C43.4 130 36.8 130 30 130 C30 126.7 30 123.4 30 120 C23.4 120 16.8 120 10 120 C10 116.7 10 113.4 10 110 C16.6 110 23.2 110 30 110 C30 106.7 30 103.4 30 100 C36.6 100 43.2 100 50 100 C50 106.6 50 113.2 50 120 C56.6 120 63.2 120 70 120 C70 113.4 70 106.8 70 100 C73.3 100 76.6 100 80 100 C80 96.7 80 93.4 80 90 C73.4 90 66.8 90 60 90 C60 86.7 60 83.4 60 80 C53.4 80 46.8 80 40 80 C40 83.3 40 86.6 40 90 C33.4 90 26.8 90 20 90 C20 86.7 20 83.4 20 80 C13.4 80 6.8 80 0 80 C0 83.3 0 86.6 0 90 C-3.3 90 -6.6 90 -10 90 C-10 96.6 -10 103.2 -10 110 C-6.7 110 -3.4 110 0 110 C0 113.3 0 116.6 0 120 C-3.3 120 -6.6 120 -10 120 C-10 123.3 -10 126.6 -10 130 C-16.6 130 -23.2 130 -30 130 C-30 116.8 -30 103.6 -30 90 C-26.7 90 -23.4 90 -20 90 C-20 86.7 -20 83.4 -20 80 C-23.3 80 -26.6 80 -30 80 C-30 70.1 -30 60.2 -30 50 C-23.4 50 -16.8 50 -10 50 C-10 46.7 -10 43.4 -10 40 C-13.3 40 -16.6 40 -20 40 C-20 30.1 -20 20.2 -20 10 C-16.7 10 -13.4 10 -10 10 C-10 13.3 -10 16.6 -10 20 C-6.7 20 -3.4 20 0 20 C0 13.4 0 6.8 0 0 Z " fill="#000000" transform="translate(70,120)"/>
<path d="M0 0 C3.3 0 6.6 0 10 0 C10 3.3 10 6.6 10 10 C13.3 10 16.6 10 20 10 C20 13.3 20 16.6 20 20 C26.6 20 33.2 20 40 20 C40 16.7 40 13.4 40 10 C43.3 10 46.6 10 50 10 C50 6.7 50 3.4 50 0 C53.3 0 56.6 0 60 0 C60 3.3 60 6.6 60 10 C63.3 10 66.6 10 70 10 C70 13.3 70 16.6 70 20 C76.6 20 83.2 20 90 20 C90 23.3 90 26.6 90 30 C93.3 30 96.6 30 100 30 C100 33.3 100 36.6 100 40 C96.7 40 93.4 40 90 40 C90 53.2 90 66.4 90 80 C93.3 80 96.6 80 100 80 C100 70.1 100 60.2 100 50 C103.3 50 106.6 50 110 50 C110 63.2 110 76.4 110 90 C103.4 90 96.8 90 90 90 C90 93.3 90 96.6 90 100 C86.7 100 83.4 100 80 100 C80 103.3 80 106.6 80 110 C76.7 110 73.4 110 70 110 C70 113.3 70 116.6 70 120 C66.7 120 63.4 120 60 120 C60 113.4 60 106.8 60 100 C63.3 100 66.6 100 70 100 C70 96.7 70 93.4 70 90 C66.7 90 63.4 90 60 90 C60 86.7 60 83.4 60 80 C56.7 80 53.4 80 50 80 C50 76.7 50 73.4 50 70 C46.7 70 43.4 70 40 70 C40 66.7 40 63.4 40 60 C36.7 60 33.4 60 30 60 C30 53.4 30 46.8 30 40 C26.7 40 23.4 40 20 40 C20 36.7 20 33.4 20 30 C13.4 30 6.8 30 0 30 C0 20.1 0 10.2 0 0 Z " fill="#000000" transform="translate(120,40)"/>
<path d="M0 0 C9.9 0 19.8 0 30 0 C30 6.6 30 13.2 30 20 C39.9 20 49.8 20 60 20 C60 23.3 60 26.6 60 30 C53.4 30 46.8 30 40 30 C40 33.3 40 36.6 40 40 C36.7 40 33.4 40 30 40 C30 46.6 30 53.2 30 60 C33.3 60 36.6 60 40 60 C40 63.3 40 66.6 40 70 C36.7 70 33.4 70 30 70 C30 73.3 30 76.6 30 80 C26.7 80 23.4 80 20 80 C20 76.7 20 73.4 20 70 C16.7 70 13.4 70 10 70 C10 66.7 10 63.4 10 60 C3.4 60 -3.2 60 -10 60 C-10 69.9 -10 79.8 -10 90 C-19.9 90 -29.8 90 -40 90 C-40 86.7 -40 83.4 -40 80 C-36.7 80 -33.4 80 -30 80 C-30 76.7 -30 73.4 -30 70 C-33.3 70 -36.6 70 -40 70 C-40 66.7 -40 63.4 -40 60 C-43.3 60 -46.6 60 -50 60 C-50 56.7 -50 53.4 -50 50 C-53.3 50 -56.6 50 -60 50 C-60 46.7 -60 43.4 -60 40 C-56.7 40 -53.4 40 -50 40 C-50 36.7 -50 33.4 -50 30 C-36.8 30 -23.6 30 -10 30 C-10 23.4 -10 16.8 -10 10 C-6.7 10 -3.4 10 0 10 C0 6.7 0 3.4 0 0 Z " fill="#FFFFFF" transform="translate(200,140)"/>
<path d="M0 0 C23.1 0 46.2 0 70 0 C70 23.1 70 46.2 70 70 C46.9 70 23.8 70 0 70 C0 46.9 0 23.8 0 0 Z " fill="#FFFFFF" transform="translate(40,260)"/>
<path d="M0 0 C23.1 0 46.2 0 70 0 C70 23.1 70 46.2 70 70 C46.9 70 23.8 70 0 70 C0 46.9 0 23.8 0 0 Z " fill="#FFFFFF" transform="translate(260,40)"/>
<path d="M0 0 C23.1 0 46.2 0 70 0 C70 23.1 70 46.2 70 70 C46.9 70 23.8 70 0 70 C0 46.9 0 23.8 0 0 Z " fill="#FFFFFF" transform="translate(40,40)"/>
<path d="M0 0 C6.6 0 13.2 0 20 0 C20 3.3 20 6.6 20 10 C23.3 10 26.6 10 30 10 C30 16.6 30 23.2 30 30 C43.2 30 56.4 30 70 30 C70 23.4 70 16.8 70 10 C76.6 10 83.2 10 90 10 C90 23.2 90 36.4 90 50 C86.7 50 83.4 50 80 50 C80 56.6 80 63.2 80 70 C76.7 70 73.4 70 70 70 C70 66.7 70 63.4 70 60 C66.7 60 63.4 60 60 60 C60 53.4 60 46.8 60 40 C56.7 40 53.4 40 50 40 C50 46.6 50 53.2 50 60 C30.2 60 10.4 60 -10 60 C-10 53.4 -10 46.8 -10 40 C-6.7 40 -3.4 40 0 40 C0 36.7 0 33.4 0 30 C6.6 30 13.2 30 20 30 C20 26.7 20 23.4 20 20 C13.4 20 6.8 20 0 20 C0 13.4 0 6.8 0 0 Z " fill="#000000" transform="translate(240,140)"/>
<path d="M0 0 C3.3 0 6.6 0 10 0 C10 3.3 10 6.6 10 10 C13.3 10 16.6 10 20 10 C20 13.3 20 16.6 20 20 C29.9 20 39.8 20 50 20 C50 26.6 50 33.2 50 40 C59.9 40 69.8 40 80 40 C80 53.2 80 66.4 80 80 C70.1 80 60.2 80 50 80 C50 76.7 50 73.4 50 70 C46.7 70 43.4 70 40 70 C40 66.7 40 63.4 40 60 C36.7 60 33.4 60 30 60 C30 53.4 30 46.8 30 40 C26.7 40 23.4 40 20 40 C20 36.7 20 33.4 20 30 C13.4 30 6.8 30 0 30 C0 20.1 0 10.2 0 0 Z " fill="#000000" transform="translate(120,40)"/>
<path d="M0 0 C23.1 0 46.2 0 70 0 C70 23.1 70 46.2 70 70 C46.9 70 23.8 70 0 70 C0 46.9 0 23.8 0 0 Z M10 10 C10 26.5 10 43 10 60 C26.5 60 43 60 60 60 C60 43.5 60 27 60 10 C43.5 10 27 10 10 10 Z " fill="#000000" transform="translate(40,260)"/>
<path d="M0 0 C23.1 0 46.2 0 70 0 C70 23.1 70 46.2 70 70 C46.9 70 23.8 70 0 70 C0 46.9 0 23.8 0 0 Z M10 10 C10 26.5 10 43 10 60 C26.5 60 43 60 60 60 C60 43.5 60 27 60 10 C43.5 10 27 10 10 10 Z " fill="#000000" transform="translate(260,40)"/>
<path d="M0 0 C23.1 0 46.2 0 70 0 C70 23.1 70 46.2 70 70 C46.9 70 23.8 70 0 70 C0 46.9 0 23.8 0 0 Z M10 10 C10 26.5 10 43 10 60 C26.5 60 43 60 60 60 C60 43.5 60 27 60 10 C43.5 10 27 10 10 10 Z " fill="#000000" transform="translate(40,40)"/>
<path d="M0 0 C6.6 0 13.2 0 20 0 C20 6.6 20 13.2 20 20 C26.6 20 33.2 20 40 20 C40 23.3 40 26.6 40 30 C36.7 30 33.4 30 30 30 C30 39.9 30 49.8 30 60 C33.3 60 36.6 60 40 60 C40 69.9 40 79.8 40 90 C46.6 90 53.2 90 60 90 C60 93.3 60 96.6 60 100 C63.3 100 66.6 100 70 100 C70 103.3 70 106.6 70 110 C63.4 110 56.8 110 50 110 C50 106.7 50 103.4 50 100 C43.4 100 36.8 100 30 100 C30 93.4 30 86.8 30 80 C26.7 80 23.4 80 20 80 C20 63.5 20 47 20 30 C13.4 30 6.8 30 0 30 C0 26.7 0 23.4 0 20 C-6.6 20 -13.2 20 -20 20 C-20 16.7 -20 13.4 -20 10 C-13.4 10 -6.8 10 0 10 C0 6.7 0 3.4 0 0 Z " fill="#000000" transform="translate(100,220)"/>
<path d="M0 0 C6.6 0 13.2 0 20 0 C20 3.3 20 6.6 20 10 C26.6 10 33.2 10 40 10 C40 6.7 40 3.4 40 0 C46.6 0 53.2 0 60 0 C60 3.3 60 6.6 60 10 C66.6 10 73.2 10 80 10 C80 13.3 80 16.6 80 20 C76.7 20 73.4 20 70 20 C70 26.6 70 33.2 70 40 C63.4 40 56.8 40 50 40 C50 33.4 50 26.8 50 20 C43.4 20 36.8 20 30 20 C30 23.3 30 26.6 30 30 C23.4 30 16.8 30 10 30 C10 33.3 10 36.6 10 40 C6.7 40 3.4 40 0 40 C0 36.7 0 33.4 0 30 C-3.3 30 -6.6 30 -10 30 C-10 23.4 -10 16.8 -10 10 C-6.7 10 -3.4 10 0 10 C0 6.7 0 3.4 0 0 Z " fill="#FFFFFF" transform="translate(70,200)"/>
<path d="M0 0 C6.6 0 13.2 0 20 0 C20 3.3 20 6.6 20 10 C26.6 10 33.2 10 40 10 C40 13.3 40 16.6 40 20 C43.3 20 46.6 20 50 20 C50 23.3 50 26.6 50 30 C43.4 30 36.8 30 30 30 C30 33.3 30 36.6 30 40 C26.7 40 23.4 40 20 40 C20 46.6 20 53.2 20 60 C23.3 60 26.6 60 30 60 C30 63.3 30 66.6 30 70 C26.7 70 23.4 70 20 70 C20 73.3 20 76.6 20 80 C13.4 80 6.8 80 0 80 C0 66.8 0 53.6 0 40 C3.3 40 6.6 40 10 40 C10 36.7 10 33.4 10 30 C6.7 30 3.4 30 0 30 C0 20.1 0 10.2 0 0 Z " fill="#000000" transform="translate(40,170)"/>
<path d="M0 0 C3.3 0 6.6 0 10 0 C10 3.3 10 6.6 10 10 C13.3 10 16.6 10 20 10 C20 6.7 20 3.4 20 0 C26.6 0 33.2 0 40 0 C40 3.3 40 6.6 40 10 C46.6 10 53.2 10 60 10 C60 13.3 60 16.6 60 20 C56.7 20 53.4 20 50 20 C50 23.3 50 26.6 50 30 C36.8 30 23.6 30 10 30 C10 33.3 10 36.6 10 40 C6.7 40 3.4 40 0 40 C0 36.7 0 33.4 0 30 C-6.6 30 -13.2 30 -20 30 C-20 26.7 -20 23.4 -20 20 C-13.4 20 -6.8 20 0 20 C0 13.4 0 6.8 0 0 Z " fill="#FFFFFF" transform="translate(80,150)"/>
<path d="M0 0 C3.3 0 6.6 0 10 0 C10 9.9 10 19.8 10 30 C6.7 30 3.4 30 0 30 C0 33.3 0 36.6 0 40 C3.3 40 6.6 40 10 40 C10 43.3 10 46.6 10 50 C6.7 50 3.4 50 0 50 C0 53.3 0 56.6 0 60 C-3.3 60 -6.6 60 -10 60 C-10 56.7 -10 53.4 -10 50 C-13.3 50 -16.6 50 -20 50 C-20 40.1 -20 30.2 -20 20 C-16.7 20 -13.4 20 -10 20 C-10 16.7 -10 13.4 -10 10 C-6.7 10 -3.4 10 0 10 C0 6.7 0 3.4 0 0 Z " fill="#FFFFFF" transform="translate(150,230)"/>
<path d="M0 0 C13.2 0 26.4 0 40 0 C40 3.3 40 6.6 40 10 C33.4 10 26.8 10 20 10 C20 13.3 20 16.6 20 20 C23.3 20 26.6 20 30 20 C30 23.3 30 26.6 30 30 C26.7 30 23.4 30 20 30 C20 33.3 20 36.6 20 40 C16.7 40 13.4 40 10 40 C10 36.7 10 33.4 10 30 C6.7 30 3.4 30 0 30 C0 33.3 0 36.6 0 40 C-3.3 40 -6.6 40 -10 40 C-10 33.4 -10 26.8 -10 20 C-3.4 20 3.2 20 10 20 C10 16.7 10 13.4 10 10 C6.7 10 3.4 10 0 10 C0 6.7 0 3.4 0 0 Z " fill="#FFFFFF" transform="translate(250,200)"/>
<path d="M0 0 C9.9 0 19.8 0 30 0 C30 9.9 30 19.8 30 30 C20.1 30 10.2 30 0 30 C0 20.1 0 10.2 0 0 Z " fill="#000000" transform="translate(60,280)"/>
<path d="M0 0 C9.9 0 19.8 0 30 0 C30 9.9 30 19.8 30 30 C20.1 30 10.2 30 0 30 C0 20.1 0 10.2 0 0 Z " fill="#FFFFFF" transform="translate(250,250)"/>
<path d="M0 0 C3.3 0 6.6 0 10 0 C10 3.3 10 6.6 10 10 C13.3 10 16.6 10 20 10 C20 13.3 20 16.6 20 20 C16.7 20 13.4 20 10 20 C10 26.6 10 33.2 10 40 C13.3 40 16.6 40 20 40 C20 43.3 20 46.6 20 50 C10.1 50 0.2 50 -10 50 C-10 46.7 -10 43.4 -10 40 C-6.7 40 -3.4 40 0 40 C0 33.4 0 26.8 0 20 C-3.3 20 -6.6 20 -10 20 C-10 16.7 -10 13.4 -10 10 C-6.7 10 -3.4 10 0 10 C0 6.7 0 3.4 0 0 Z " fill="#FFFFFF" transform="translate(170,120)"/>
<path d="M0 0 C9.9 0 19.8 0 30 0 C30 9.9 30 19.8 30 30 C20.1 30 10.2 30 0 30 C0 20.1 0 10.2 0 0 Z " fill="#000000" transform="translate(280,60)"/>
<path d="M0 0 C9.9 0 19.8 0 30 0 C30 9.9 30 19.8 30 30 C20.1 30 10.2 30 0 30 C0 20.1 0 10.2 0 0 Z " fill="#000000" transform="translate(60,60)"/>
<path d="M0 0 C6.6 0 13.2 0 20 0 C20 3.3 20 6.6 20 10 C16.7 10 13.4 10 10 10 C10 23.2 10 36.4 10 50 C6.7 50 3.4 50 0 50 C0 53.3 0 56.6 0 60 C-3.3 60 -6.6 60 -10 60 C-10 53.4 -10 46.8 -10 40 C-6.7 40 -3.4 40 0 40 C0 26.8 0 13.6 0 0 Z " fill="#FFFFFF" transform="translate(200,230)"/>
<path d="M0 0 C3.3 0 6.6 0 10 0 C10 3.3 10 6.6 10 10 C13.3 10 16.6 10 20 10 C20 13.3 20 16.6 20 20 C16.7 20 13.4 20 10 20 C10 23.3 10 26.6 10 30 C6.7 30 3.4 30 0 30 C0 26.7 0 23.4 0 20 C-3.3 20 -6.6 20 -10 20 C-10 23.3 -10 26.6 -10 30 C-13.3 30 -16.6 30 -20 30 C-20 26.7 -20 23.4 -20 20 C-23.3 20 -26.6 20 -30 20 C-30 16.7 -30 13.4 -30 10 C-20.1 10 -10.2 10 0 10 C0 6.7 0 3.4 0 0 Z " fill="#000000" transform="translate(190,160)"/>
<path d="M0 0 C6.6 0 13.2 0 20 0 C20 9.9 20 19.8 20 30 C16.7 30 13.4 30 10 30 C10 39.9 10 49.8 10 60 C6.7 60 3.4 60 0 60 C0 46.8 0 33.6 0 20 C3.3 20 6.6 20 10 20 C10 16.7 10 13.4 10 10 C6.7 10 3.4 10 0 10 C0 6.7 0 3.4 0 0 Z " fill="#FFFFFF" transform="translate(210,60)"/>
<path d="M0 0 C3.3 0 6.6 0 10 0 C10 3.3 10 6.6 10 10 C16.6 10 23.2 10 30 10 C30 19.9 30 29.8 30 40 C33.3 40 36.6 40 40 40 C40 43.3 40 46.6 40 50 C33.4 50 26.8 50 20 50 C20 40.1 20 30.2 20 20 C13.4 20 6.8 20 0 20 C0 13.4 0 6.8 0 0 Z " fill="#000000" transform="translate(210,40)"/>
<path d="M0 0 C9.9 0 19.8 0 30 0 C30 3.3 30 6.6 30 10 C26.7 10 23.4 10 20 10 C20 13.3 20 16.6 20 20 C16.7 20 13.4 20 10 20 C10 23.3 10 26.6 10 30 C3.4 30 -3.2 30 -10 30 C-10 26.7 -10 23.4 -10 20 C-6.7 20 -3.4 20 0 20 C0 13.4 0 6.8 0 0 Z " fill="#000000" transform="translate(300,120)"/>
<path d="M0 0 C6.6 0 13.2 0 20 0 C20 3.3 20 6.6 20 10 C23.3 10 26.6 10 30 10 C30 13.3 30 16.6 30 20 C26.7 20 23.4 20 20 20 C20 23.3 20 26.6 20 30 C16.7 30 13.4 30 10 30 C10 33.3 10 36.6 10 40 C6.7 40 3.4 40 0 40 C0 33.4 0 26.8 0 20 C3.3 20 6.6 20 10 20 C10 16.7 10 13.4 10 10 C6.7 10 3.4 10 0 10 C0 6.7 0 3.4 0 0 Z " fill="#000000" transform="translate(180,120)"/>
<path d="M0 0 C9.9 0 19.8 0 30 0 C30 13.2 30 26.4 30 40 C23.4 40 16.8 40 10 40 C10 36.7 10 33.4 10 30 C13.3 30 16.6 30 20 30 C20 23.4 20 16.8 20 10 C13.4 10 6.8 10 0 10 C0 6.7 0 3.4 0 0 Z " fill="#FFFFFF" transform="translate(170,80)"/>
<path d="M0 0 C3.3 0 6.6 0 10 0 C10 3.3 10 6.6 10 10 C16.6 10 23.2 10 30 10 C30 13.3 30 16.6 30 20 C33.3 20 36.6 20 40 20 C40 23.3 40 26.6 40 30 C33.4 30 26.8 30 20 30 C20 26.7 20 23.4 20 20 C13.4 20 6.8 20 0 20 C0 13.4 0 6.8 0 0 Z " fill="#000000" transform="translate(130,300)"/>
<path d="M0 0 C6.6 0 13.2 0 20 0 C20 3.3 20 6.6 20 10 C16.7 10 13.4 10 10 10 C10 16.6 10 23.2 10 30 C6.7 30 3.4 30 0 30 C0 26.7 0 23.4 0 20 C-6.6 20 -13.2 20 -20 20 C-20 16.7 -20 13.4 -20 10 C-13.4 10 -6.8 10 0 10 C0 6.7 0 3.4 0 0 Z " fill="#FFFFFF" transform="translate(160,290)"/>
<path d="M0 0 C3.3 0 6.6 0 10 0 C10 3.3 10 6.6 10 10 C13.3 10 16.6 10 20 10 C20 16.6 20 23.2 20 30 C13.4 30 6.8 30 0 30 C0 20.1 0 10.2 0 0 Z " fill="#000000" transform="translate(50,130)"/>
<path d="M0 0 C3.3 0 6.6 0 10 0 C10 13.2 10 26.4 10 40 C3.4 40 -3.2 40 -10 40 C-10 36.7 -10 33.4 -10 30 C-6.7 30 -3.4 30 0 30 C0 20.1 0 10.2 0 0 Z " fill="#000000" transform="translate(220,90)"/>
<path d="M0 0 C3.3 0 6.6 0 10 0 C10 9.9 10 19.8 10 30 C6.7 30 3.4 30 0 30 C0 26.7 0 23.4 0 20 C-3.3 20 -6.6 20 -10 20 C-10 16.7 -10 13.4 -10 10 C-6.7 10 -3.4 10 0 10 C0 6.7 0 3.4 0 0 Z " fill="#000000" transform="translate(320,290)"/>
<path d="M0 0 C6.6 0 13.2 0 20 0 C20 6.6 20 13.2 20 20 C13.4 20 6.8 20 0 20 C0 13.4 0 6.8 0 0 Z " fill="#000000" transform="translate(210,140)"/>
<path d="M0 0 C6.6 0 13.2 0 20 0 C20 6.6 20 13.2 20 20 C16.7 20 13.4 20 10 20 C10 16.7 10 13.4 10 10 C6.7 10 3.4 10 0 10 C0 6.7 0 3.4 0 0 Z " fill="#FFFFFF" transform="translate(230,300)"/>
<path d="M0 0 C3.3 0 6.6 0 10 0 C10 3.3 10 6.6 10 10 C13.3 10 16.6 10 20 10 C20 13.3 20 16.6 20 20 C13.4 20 6.8 20 0 20 C0 13.4 0 6.8 0 0 Z " fill="#FFFFFF" transform="translate(260,290)"/>
<path d="M0 0 C3.3 0 6.6 0 10 0 C10 3.3 10 6.6 10 10 C13.3 10 16.6 10 20 10 C20 13.3 20 16.6 20 20 C13.4 20 6.8 20 0 20 C0 13.4 0 6.8 0 0 Z " fill="#FFFFFF" transform="translate(210,280)"/>
<path d="M0 0 C3.3 0 6.6 0 10 0 C10 3.3 10 6.6 10 10 C13.3 10 16.6 10 20 10 C20 13.3 20 16.6 20 20 C13.4 20 6.8 20 0 20 C0 13.4 0 6.8 0 0 Z " fill="#FFFFFF" transform="translate(220,240)"/>
<path d="M0 0 C6.6 0 13.2 0 20 0 C20 3.3 20 6.6 20 10 C16.7 10 13.4 10 10 10 C10 13.3 10 16.6 10 20 C6.7 20 3.4 20 0 20 C0 13.4 0 6.8 0 0 Z " fill="#FFFFFF" transform="translate(240,220)"/>
<path d="M0 0 C3.3 0 6.6 0 10 0 C10 6.6 10 13.2 10 20 C3.4 20 -3.2 20 -10 20 C-10 16.7 -10 13.4 -10 10 C-6.7 10 -3.4 10 0 10 C0 6.7 0 3.4 0 0 Z " fill="#000000" transform="translate(70,150)"/>
<path d="M0 0 C3.3 0 6.6 0 10 0 C10 6.6 10 13.2 10 20 C3.4 20 -3.2 20 -10 20 C-10 16.7 -10 13.4 -10 10 C-6.7 10 -3.4 10 0 10 C0 6.7 0 3.4 0 0 Z " fill="#000000" transform="translate(280,120)"/>
<path d="M0 0 C6.6 0 13.2 0 20 0 C20 6.6 20 13.2 20 20 C16.7 20 13.4 20 10 20 C10 16.7 10 13.4 10 10 C6.7 10 3.4 10 0 10 C0 6.7 0 3.4 0 0 Z " fill="#000000" transform="translate(170,90)"/>
<path d="M0 0 C6.6 0 13.2 0 20 0 C20 3.3 20 6.6 20 10 C13.4 10 6.8 10 0 10 C0 6.7 0 3.4 0 0 Z " fill="#FFFFFF" transform="translate(290,300)"/>
<path d="M0 0 C6.6 0 13.2 0 20 0 C20 3.3 20 6.6 20 10 C13.4 10 6.8 10 0 10 C0 6.7 0 3.4 0 0 Z " fill="#000000" transform="translate(290,290)"/>
<path d="M0 0 C3.3 0 6.6 0 10 0 C10 6.6 10 13.2 10 20 C6.7 20 3.4 20 0 20 C0 13.4 0 6.8 0 0 Z " fill="#FFFFFF" transform="translate(170,240)"/>
<path d="M0 0 C6.6 0 13.2 0 20 0 C20 3.3 20 6.6 20 10 C13.4 10 6.8 10 0 10 C0 6.7 0 3.4 0 0 Z " fill="#000000" transform="translate(80,230)"/>
<path d="M0 0 C6.6 0 13.2 0 20 0 C20 3.3 20 6.6 20 10 C13.4 10 6.8 10 0 10 C0 6.7 0 3.4 0 0 Z " fill="#000000" transform="translate(90,200)"/>
<path d="M0 0 C6.6 0 13.2 0 20 0 C20 3.3 20 6.6 20 10 C13.4 10 6.8 10 0 10 C0 6.7 0 3.4 0 0 Z " fill="#FFFFFF" transform="translate(90,190)"/>
<path d="M0 0 C3.3 0 6.6 0 10 0 C10 6.6 10 13.2 10 20 C6.7 20 3.4 20 0 20 C0 13.4 0 6.8 0 0 Z " fill="#FFFFFF" transform="translate(290,180)"/>
<path d="M0 0 C6.6 0 13.2 0 20 0 C20 3.3 20 6.6 20 10 C13.4 10 6.8 10 0 10 C0 6.7 0 3.4 0 0 Z " fill="#FFFFFF" transform="translate(60,170)"/>
<path d="M0 0 C6.6 0 13.2 0 20 0 C20 3.3 20 6.6 20 10 C13.4 10 6.8 10 0 10 C0 6.7 0 3.4 0 0 Z " fill="#FFFFFF" transform="translate(240,160)"/>
<path d="M0 0 C3.3 0 6.6 0 10 0 C10 6.6 10 13.2 10 20 C6.7 20 3.4 20 0 20 C0 13.4 0 6.8 0 0 Z " fill="#FFFFFF" transform="translate(230,140)"/>
<path d="M0 0 C6.6 0 13.2 0 20 0 C20 3.3 20 6.6 20 10 C13.4 10 6.8 10 0 10 C0 6.7 0 3.4 0 0 Z " fill="#FFFFFF" transform="translate(210,130)"/>
<path d="M0 0 C6.6 0 13.2 0 20 0 C20 3.3 20 6.6 20 10 C13.4 10 6.8 10 0 10 C0 6.7 0 3.4 0 0 Z " fill="#FFFFFF" transform="translate(100,130)"/>
<path d="M0 0 C3.3 0 6.6 0 10 0 C10 6.6 10 13.2 10 20 C6.7 20 3.4 20 0 20 C0 13.4 0 6.8 0 0 Z " fill="#000000" transform="translate(240,100)"/>
<path d="M0 0 C6.6 0 13.2 0 20 0 C20 3.3 20 6.6 20 10 C13.4 10 6.8 10 0 10 C0 6.7 0 3.4 0 0 Z " fill="#000000" transform="translate(120,80)"/>
<path d="M0 0 C3.3 0 6.6 0 10 0 C10 6.6 10 13.2 10 20 C6.7 20 3.4 20 0 20 C0 13.4 0 6.8 0 0 Z " fill="#FFFFFF" transform="translate(160,60)"/>
<path d="M0 0 C3.3 0 6.6 0 10 0 C10 3.3 10 6.6 10 10 C6.7 10 3.4 10 0 10 C0 6.7 0 3.4 0 0 Z " fill="#000000" transform="translate(120,320)"/>
<path d="M0 0 C3.3 0 6.6 0 10 0 C10 3.3 10 6.6 10 10 C6.7 10 3.4 10 0 10 C0 6.7 0 3.4 0 0 Z " fill="#FFFFFF" transform="translate(280,290)"/>
<path d="M0 0 C3.3 0 6.6 0 10 0 C10 3.3 10 6.6 10 10 C6.7 10 3.4 10 0 10 C0 6.7 0 3.4 0 0 Z " fill="#FFFFFF" transform="translate(130,290)"/>
<path d="M0 0 C3.3 0 6.6 0 10 0 C10 3.3 10 6.6 10 10 C6.7 10 3.4 10 0 10 C0 6.7 0 3.4 0 0 Z " fill="#000000" transform="translate(310,280)"/>
<path d="M0 0 C3.3 0 6.6 0 10 0 C10 3.3 10 6.6 10 10 C6.7 10 3.4 10 0 10 C0 6.7 0 3.4 0 0 Z " fill="#FFFFFF" transform="translate(140,280)"/>
<path d="M0 0 C3.3 0 6.6 0 10 0 C10 3.3 10 6.6 10 10 C6.7 10 3.4 10 0 10 C0 6.7 0 3.4 0 0 Z " fill="#FFFFFF" transform="translate(170,270)"/>
<path d="M0 0 C3.3 0 6.6 0 10 0 C10 3.3 10 6.6 10 10 C6.7 10 3.4 10 0 10 C0 6.7 0 3.4 0 0 Z " fill="#FFFFFF" transform="translate(150,270)"/>
<path d="M0 0 C3.3 0 6.6 0 10 0 C10 3.3 10 6.6 10 10 C6.7 10 3.4 10 0 10 C0 6.7 0 3.4 0 0 Z " fill="#000000" transform="translate(140,270)"/>
<path d="M0 0 C3.3 0 6.6 0 10 0 C10 3.3 10 6.6 10 10 C6.7 10 3.4 10 0 10 C0 6.7 0 3.4 0 0 Z " fill="#000000" transform="translate(260,260)"/>
<path d="M0 0 C3.3 0 6.6 0 10 0 C10 3.3 10 6.6 10 10 C6.7 10 3.4 10 0 10 C0 6.7 0 3.4 0 0 Z " fill="#000000" transform="translate(70,240)"/>
<path d="M0 0 C3.3 0 6.6 0 10 0 C10 3.3 10 6.6 10 10 C6.7 10 3.4 10 0 10 C0 6.7 0 3.4 0 0 Z " fill="#FFFFFF" transform="translate(260,230)"/>
<path d="M0 0 C3.3 0 6.6 0 10 0 C10 3.3 10 6.6 10 10 C6.7 10 3.4 10 0 10 C0 6.7 0 3.4 0 0 Z " fill="#FFFFFF" transform="translate(100,230)"/>
<path d="M0 0 C3.3 0 6.6 0 10 0 C10 3.3 10 6.6 10 10 C6.7 10 3.4 10 0 10 C0 6.7 0 3.4 0 0 Z " fill="#FFFFFF" transform="translate(270,220)"/>
<path d="M0 0 C3.3 0 6.6 0 10 0 C10 3.3 10 6.6 10 10 C6.7 10 3.4 10 0 10 C0 6.7 0 3.4 0 0 Z " fill="#000000" transform="translate(260,220)"/>
<path d="M0 0 C3.3 0 6.6 0 10 0 C10 3.3 10 6.6 10 10 C6.7 10 3.4 10 0 10 C0 6.7 0 3.4 0 0 Z " fill="#FFFFFF" transform="translate(200,210)"/>
<path d="M0 0 C3.3 0 6.6 0 10 0 C10 3.3 10 6.6 10 10 C6.7 10 3.4 10 0 10 C0 6.7 0 3.4 0 0 Z " fill="#000000" transform="translate(290,200)"/>
<path d="M0 0 C3.3 0 6.6 0 10 0 C10 3.3 10 6.6 10 10 C6.7 10 3.4 10 0 10 C0 6.7 0 3.4 0 0 Z " fill="#000000" transform="translate(170,200)"/>
<path d="M0 0 C3.3 0 6.6 0 10 0 C10 3.3 10 6.6 10 10 C6.7 10 3.4 10 0 10 C0 6.7 0 3.4 0 0 Z " fill="#FFFFFF" transform="translate(240,190)"/>
<path d="M0 0 C3.3 0 6.6 0 10 0 C10 3.3 10 6.6 10 10 C6.7 10 3.4 10 0 10 C0 6.7 0 3.4 0 0 Z " fill="#FFFFFF" transform="translate(270,180)"/>
<path d="M0 0 C3.3 0 6.6 0 10 0 C10 3.3 10 6.6 10 10 C6.7 10 3.4 10 0 10 C0 6.7 0 3.4 0 0 Z " fill="#FFFFFF" transform="translate(250,180)"/>
<path d="M0 0 C3.3 0 6.6 0 10 0 C10 3.3 10 6.6 10 10 C6.7 10 3.4 10 0 10 C0 6.7 0 3.4 0 0 Z " fill="#FFFFFF" transform="translate(80,180)"/>
<path d="M0 0 C3.3 0 6.6 0 10 0 C10 3.3 10 6.6 10 10 C6.7 10 3.4 10 0 10 C0 6.7 0 3.4 0 0 Z " fill="#000000" transform="translate(80,170)"/>
<path d="M0 0 C3.3 0 6.6 0 10 0 C10 3.3 10 6.6 10 10 C6.7 10 3.4 10 0 10 C0 6.7 0 3.4 0 0 Z " fill="#000000" transform="translate(230,160)"/>
<path d="M0 0 C3.3 0 6.6 0 10 0 C10 3.3 10 6.6 10 10 C6.7 10 3.4 10 0 10 C0 6.7 0 3.4 0 0 Z " fill="#000000" transform="translate(100,160)"/>
<path d="M0 0 C3.3 0 6.6 0 10 0 C10 3.3 10 6.6 10 10 C6.7 10 3.4 10 0 10 C0 6.7 0 3.4 0 0 Z " fill="#000000" transform="translate(280,150)"/>
<path d="M0 0 C3.3 0 6.6 0 10 0 C10 3.3 10 6.6 10 10 C6.7 10 3.4 10 0 10 C0 6.7 0 3.4 0 0 Z " fill="#FFFFFF" transform="translate(150,150)"/>
<path d="M0 0 C3.3 0 6.6 0 10 0 C10 3.3 10 6.6 10 10 C6.7 10 3.4 10 0 10 C0 6.7 0 3.4 0 0 Z " fill="#FFFFFF" transform="translate(60,150)"/>
<path d="M0 0 C3.3 0 6.6 0 10 0 C10 3.3 10 6.6 10 10 C6.7 10 3.4 10 0 10 C0 6.7 0 3.4 0 0 Z " fill="#FFFFFF" transform="translate(130,140)"/>
<path d="M0 0 C3.3 0 6.6 0 10 0 C10 3.3 10 6.6 10 10 C6.7 10 3.4 10 0 10 C0 6.7 0 3.4 0 0 Z " fill="#FFFFFF" transform="translate(70,140)"/>
<path d="M0 0 C3.3 0 6.6 0 10 0 C10 3.3 10 6.6 10 10 C6.7 10 3.4 10 0 10 C0 6.7 0 3.4 0 0 Z " fill="#000000" transform="translate(230,130)"/>
<path d="M0 0 C3.3 0 6.6 0 10 0 C10 3.3 10 6.6 10 10 C6.7 10 3.4 10 0 10 C0 6.7 0 3.4 0 0 Z " fill="#FFFFFF" transform="translate(80,130)"/>
<path d="M0 0 C3.3 0 6.6 0 10 0 C10 3.3 10 6.6 10 10 C6.7 10 3.4 10 0 10 C0 6.7 0 3.4 0 0 Z " fill="#000000" transform="translate(250,120)"/>
<path d="M0 0 C3.3 0 6.6 0 10 0 C10 3.3 10 6.6 10 10 C6.7 10 3.4 10 0 10 C0 6.7 0 3.4 0 0 Z " fill="#FFFFFF" transform="translate(200,120)"/>
<path d="M0 0 C3.3 0 6.6 0 10 0 C10 3.3 10 6.6 10 10 C6.7 10 3.4 10 0 10 C0 6.7 0 3.4 0 0 Z " fill="#000000" transform="translate(160,120)"/>
<path d="M0 0 C3.3 0 6.6 0 10 0 C10 3.3 10 6.6 10 10 C6.7 10 3.4 10 0 10 C0 6.7 0 3.4 0 0 Z " fill="#000000" transform="translate(40,120)"/>
<path d="M0 0 C3.3 0 6.6 0 10 0 C10 3.3 10 6.6 10 10 C6.7 10 3.4 10 0 10 C0 6.7 0 3.4 0 0 Z " fill="#000000" transform="translate(170,110)"/>
<path d="M0 0 C3.3 0 6.6 0 10 0 C10 3.3 10 6.6 10 10 C6.7 10 3.4 10 0 10 C0 6.7 0 3.4 0 0 Z " fill="#FFFFFF" transform="translate(170,100)"/>
<path d="M0 0 C3.3 0 6.6 0 10 0 C10 3.3 10 6.6 10 10 C6.7 10 3.4 10 0 10 C0 6.7 0 3.4 0 0 Z " fill="#000000" transform="translate(160,100)"/>
<path d="M0 0 C3.3 0 6.6 0 10 0 C10 3.3 10 6.6 10 10 C6.7 10 3.4 10 0 10 C0 6.7 0 3.4 0 0 Z " fill="#000000" transform="translate(140,100)"/>
<path d="M0 0 C3.3 0 6.6 0 10 0 C10 3.3 10 6.6 10 10 C6.7 10 3.4 10 0 10 C0 6.7 0 3.4 0 0 Z " fill="#000000" transform="translate(120,100)"/>
<path d="M0 0 C3.3 0 6.6 0 10 0 C10 3.3 10 6.6 10 10 C6.7 10 3.4 10 0 10 C0 6.7 0 3.4 0 0 Z " fill="#FFFFFF" transform="translate(160,90)"/>
<path d="M0 0 C3.3 0 6.6 0 10 0 C10 3.3 10 6.6 10 10 C6.7 10 3.4 10 0 10 C0 6.7 0 3.4 0 0 Z " fill="#000000" transform="translate(240,40)"/>
<path d="M0 0 C3.3 0 6.6 0 10 0 C10 3.3 10 6.6 10 10 C6.7 10 3.4 10 0 10 C0 6.7 0 3.4 0 0 Z " fill="#000000" transform="translate(140,40)"/>
</svg>
