<?xml version="1.0" encoding="UTF-8"?>
<svg version="1.1" xmlns="http://www.w3.org/2000/svg" width="370" height="370">
<path d="M0 0 C122.1 0 244.2 0 370 0 C370 122.1 370 244.2 370 370 C247.9 370 125.8 370 0 370 C0 247.9 0 125.8 0 0 Z " fill="#FFFFFF" transform="translate(0,0)"/>
<path d="M0 0 C6.6 0 13.2 0 20 0 C20 3.3 20 6.6 20 10 C16.7 10 13.4 10 10 10 C10 13.3 10 16.6 10 20 C13.3 20 16.6 20 20 20 C20 36.5 20 53 20 70 C23.3 70 26.6 70 30 70 C30 66.7 30 63.4 30 60 C33.3 60 36.6 60 40 60 C40 56.7 40 53.4 40 50 C36.7 50 33.4 50 30 50 C30 33.5 30 17 30 0 C33.3 0 36.6 0 40 0 C40 3.3 40 6.6 40 10 C46.6 10 53.2 10 60 10 C60 13.3 60 16.6 60 20 C53.4 20 46.8 20 40 20 C40 23.3 40 26.6 40 30 C46.6 30 53.2 30 60 30 C60 43.2 60 56.4 60 70 C56.7 70 53.4 70 50 70 C50 76.6 50 83.2 50 90 C46.7 90 43.4 90 40 90 C40 96.6 40 103.2 40 110 C43.3 110 46.6 110 50 110 C50 113.3 50 116.6 50 120 C46.7 120 43.4 120 40 120 C40 126.6 40 133.2 40 140 C36.7 140 33.4 140 30 140 C30 143.3 30 146.6 30 150 C33.3 150 36.6 150 40 150 C40 156.6 40 163.2 40 170 C43.3 170 46.6 170 50 170 C50 160.1 50 150.2 50 140 C53.3 140 56.6 140 60 140 C60 133.4 60 126.8 60 120 C66.6 120 73.2 120 80 120 C80 113.4 80 106.8 80 100 C76.7 100 73.4 100 70 100 C70 96.7 70 93.4 70 90 C76.6 90 83.2 90 90 90 C90 93.3 90 96.6 90 100 C93.3 100 96.6 100 100 100 C100 106.6 100 113.2 100 120 C96.7 120 93.4 120 90 120 C90 126.6 90 133.2 90 140 C93.3 140 96.6 140 100 140 C100 136.7 100 133.4 100 130 C103.3 130 106.6 130 110 130 C110 156.4 110 182.8 110 210 C106.7 210 103.4 210 100 210 C100 213.3 100 216.6 100 220 C106.6 220 113.2 220 120 220 C120 223.3 120 226.6 120 230 C116.7 230 113.4 230 110 230 C110 239.9 110 249.8 110 260 C113.3 260 116.6 260 120 260 C120 256.7 120 253.4 120 250 C126.6 250 133.2 250 140 250 C140 256.6 140 263.2 140 270 C136.7 270 133.4 270 130 270 C130 273.3 130 276.6 130 280 C133.3 280 136.6 280 140 280 C140 283.3 140 286.6 140 290 C133.4 290 126.8 290 120 290 C120 283.4 120 276.8 120 270 C116.7 270 113.4 270 110 270 C110 276.6 110 283.2 110 290 C103.4 290 96.8 290 90 290 C90 286.7 90 283.4 90 280 C86.7 280 83.4 280 80 280 C80 270.1 80 260.2 80 250 C76.7 250 73.4 250 70 250 C70 256.6 70 263.2 70 270 C66.7 270 63.4 270 60 270 C60 276.6 60 283.2 60 290 C56.7 290 53.4 290 50 290 C50 283.4 50 276.8 50 270 C46.7 270 43.4 270 40 270 C40 276.6 40 283.2 40 290 C33.4 290 26.8 290 20 290 C20 286.7 20 283.4 20 280 C13.4 280 6.8 280 0 280 C0 283.3 0 286.6 0 290 C-23.1 290 -46.2 290 -70 290 C-70 286.7 -70 283.4 -70 280 C-56.8 280 -43.6 280 -30 280 C-30 276.7 -30 273.4 -30 270 C-36.6 270 -43.2 270 -50 270 C-50 266.7 -50 263.4 -50 260 C-46.7 260 -43.4 260 -40 260 C-40 256.7 -40 253.4 -40 250 C-43.3 250 -46.6 250 -50 250 C-50 246.7 -50 243.4 -50 240 C-46.7 240 -43.4 240 -40 240 C-40 236.7 -40 233.4 -40 230 C-36.7 230 -33.4 230 -30 230 C-30 226.7 -30 223.4 -30 220 C-26.7 220 -23.4 220 -20 220 C-20 213.4 -20 206.8 -20 200 C-23.3 200 -26.6 200 -30 200 C-30 203.3 -30 206.6 -30 210 C-33.3 210 -36.6 210 -40 210 C-40 196.8 -40 183.6 -40 170 C-43.3 170 -46.6 170 -50 170 C-50 166.7 -50 163.4 -50 160 C-53.3 160 -56.6 160 -60 160 C-60 153.4 -60 146.8 -60 140 C-63.3 140 -66.6 140 -70 140 C-70 133.4 -70 126.8 -70 120 C-66.7 120 -63.4 120 -60 120 C-60 123.3 -60 126.6 -60 130 C-56.7 130 -53.4 130 -50 130 C-50 126.7 -50 123.4 -50 120 C-46.7 120 -43.4 120 -40 120 C-40 126.6 -40 133.2 -40 140 C-43.3 140 -46.6 140 -50 140 C-50 143.3 -50 146.6 -50 150 C-46.7 150 -43.4 150 -40 150 C-40 153.3 -40 156.6 -40 160 C-36.7 160 -33.4 160 -30 160 C-30 153.4 -30 146.8 -30 140 C-26.7 140 -23.4 140 -20 140 C-20 130.1 -20 120.2 -20 110 C-16.7 110 -13.4 110 -10 110 C-10 113.3 -10 116.6 -10 120 C-6.7 120 -3.4 120 0 120 C0 129.9 0 139.8 0 150 C6.6 150 13.2 150 20 150 C20 136.8 20 123.6 20 110 C16.7 110 13.4 110 10 110 C10 106.7 10 103.4 10 100 C6.7 100 3.4 100 0 100 C0 96.7 0 93.4 0 90 C3.3 90 6.6 90 10 90 C10 86.7 10 83.4 10 80 C6.7 80 3.4 80 0 80 C0 76.7 0 73.4 0 70 C-3.3 70 -6.6 70 -10 70 C-10 66.7 -10 63.4 -10 60 C-13.3 60 -16.6 60 -20 60 C-20 56.7 -20 53.4 -20 50 C-13.4 50 -6.8 50 0 50 C0 43.4 0 36.8 0 30 C-3.3 30 -6.6 30 -10 30 C-10 26.7 -10 23.4 -10 20 C-6.7 20 -3.4 20 0 20 C0 13.4 0 6.8 0 0 Z " fill="#000000" transform="translate(190,40)"/>
<path d="M0 0 C3.3 0 6.6 0 10 0 C10 26.4 10 52.8 10 80 C6.7 80 3.4 80 0 80 C0 83.3 0 86.6 0 90 C6.6 90 13.2 90 20 90 C20 93.3 20 96.6 20 100 C16.7 100 13.4 100 10 100 C10 109.9 10 119.8 10 130 C13.3 130 16.6 130 20 130 C20 126.7 20 123.4 20 120 C26.6 120 33.2 120 40 120 C40 126.6 40 133.2 40 140 C36.7 140 33.4 140 30 140 C30 143.3 30 146.6 30 150 C33.3 150 36.6 150 40 150 C40 153.3 40 156.6 40 160 C33.4 160 26.8 160 20 160 C20 153.4 20 146.8 20 140 C16.7 140 13.4 140 10 140 C10 146.6 10 153.2 10 160 C3.4 160 -3.2 160 -10 160 C-10 156.7 -10 153.4 -10 150 C-13.3 150 -16.6 150 -20 150 C-20 140.1 -20 130.2 -20 120 C-23.3 120 -26.6 120 -30 120 C-30 126.6 -30 133.2 -30 140 C-33.3 140 -36.6 140 -40 140 C-40 146.6 -40 153.2 -40 160 C-43.3 160 -46.6 160 -50 160 C-50 153.4 -50 146.8 -50 140 C-53.3 140 -56.6 140 -60 140 C-60 146.6 -60 153.2 -60 160 C-66.6 160 -73.2 160 -80 160 C-80 156.7 -80 153.4 -80 150 C-93.2 150 -106.4 150 -120 150 C-120 146.7 -120 143.4 -120 140 C-113.4 140 -106.8 140 -100 140 C-100 136.7 -100 133.4 -100 130 C-103.3 130 -106.6 130 -110 130 C-110 126.7 -110 123.4 -110 120 C-106.7 120 -103.4 120 -100 120 C-100 110.1 -100 100.2 -100 90 C-103.3 90 -106.6 90 -110 90 C-110 83.4 -110 76.8 -110 70 C-106.7 70 -103.4 70 -100 70 C-100 56.8 -100 43.6 -100 30 C-93.4 30 -86.8 30 -80 30 C-80 36.6 -80 43.2 -80 50 C-66.8 50 -53.6 50 -40 50 C-40 40.1 -40 30.2 -40 20 C-30.1 20 -20.2 20 -10 20 C-10 16.7 -10 13.4 -10 10 C-6.7 10 -3.4 10 0 10 C0 6.7 0 3.4 0 0 Z " fill="#000000" transform="translate(290,170)"/>
<path d="M0 0 C23.1 0 46.2 0 70 0 C70 23.1 70 46.2 70 70 C46.9 70 23.8 70 0 70 C0 46.9 0 23.8 0 0 Z " fill="#FFFFFF" transform="translate(40,260)"/>
<path d="M0 0 C23.1 0 46.2 0 70 0 C70 23.1 70 46.2 70 70 C46.9 70 23.8 70 0 70 C0 46.9 0 23.8 0 0 Z " fill="#FFFFFF" transform="translate(260,40)"/>
<path d="M0 0 C23.1 0 46.2 0 70 0 C70 23.1 70 46.2 70 70 C46.9 70 23.8 70 0 70 C0 46.9 0 23.8 0 0 Z " fill="#FFFFFF" transform="translate(40,40)"/>
<path d="M0 0 C3.3 0 6.6 0 10 0 C10 3.3 10 6.6 10 10 C19.9 10 29.8 10 40 10 C40 16.6 40 23.2 40 30 C36.7 30 33.4 30 30 30 C30 33.3 30 36.6 30 40 C36.6 40 43.2 40 50 40 C50 43.3 50 46.6 50 50 C43.4 50 36.8 50 30 50 C30 53.3 30 56.6 30 60 C26.7 60 23.4 60 20 60 C20 63.3 20 66.6 20 70 C23.3 70 26.6 70 30 70 C30 73.3 30 76.6 30 80 C23.4 80 16.8 80 10 80 C10 70.1 10 60.2 10 50 C6.7 50 3.4 50 0 50 C0 53.3 0 56.6 0 60 C-6.6 60 -13.2 60 -20 60 C-20 56.7 -20 53.4 -20 50 C-23.3 50 -26.6 50 -30 50 C-30 46.7 -30 43.4 -30 40 C-33.3 40 -36.6 40 -40 40 C-40 33.4 -40 26.8 -40 20 C-36.7 20 -33.4 20 -30 20 C-30 16.7 -30 13.4 -30 10 C-20.1 10 -10.2 10 0 10 C0 6.7 0 3.4 0 0 Z " fill="#000000" transform="translate(80,170)"/>
<path d="M0 0 C6.6 0 13.2 0 20 0 C20 6.6 20 13.2 20 20 C16.7 20 13.4 20 10 20 C10 26.6 10 33.2 10 40 C13.3 40 16.6 40 20 40 C20 46.6 20 53.2 20 60 C23.3 60 26.6 60 30 60 C30 63.3 30 66.6 30 70 C26.7 70 23.4 70 20 70 C20 79.9 20 89.8 20 100 C23.3 100 26.6 100 30 100 C30 103.3 30 106.6 30 110 C20.1 110 10.2 110 0 110 C0 106.7 0 103.4 0 100 C-3.3 100 -6.6 100 -10 100 C-10 96.7 -10 93.4 -10 90 C-6.7 90 -3.4 90 0 90 C0 80.1 0 70.2 0 60 C-3.3 60 -6.6 60 -10 60 C-10 53.4 -10 46.8 -10 40 C-6.7 40 -3.4 40 0 40 C0 26.8 0 13.6 0 0 Z " fill="#FFFFFF" transform="translate(190,200)"/>
<path d="M0 0 C23.1 0 46.2 0 70 0 C70 23.1 70 46.2 70 70 C46.9 70 23.8 70 0 70 C0 46.9 0 23.8 0 0 Z M10 10 C10 26.5 10 43 10 60 C26.5 60 43 60 60 60 C60 43.5 60 27 60 10 C43.5 10 27 10 10 10 Z " fill="#000000" transform="translate(40,260)"/>
<path d="M0 0 C23.1 0 46.2 0 70 0 C70 23.1 70 46.2 70 70 C46.9 70 23.8 70 0 70 C0 46.9 0 23.8 0 0 Z M10 10 C10 26.5 10 43 10 60 C26.5 60 43 60 60 60 C60 43.5 60 27 60 10 C43.5 10 27 10 10 10 Z " fill="#000000" transform="translate(260,40)"/>
<path d="M0 0 C23.1 0 46.2 0 70 0 C70 23.1 70 46.2 70 70 C46.9 70 23.8 70 0 70 C0 46.9 0 23.8 0 0 Z M10 10 C10 26.5 10 43 10 60 C26.5 60 43 60 60 60 C60 43.5 60 27 60 10 C43.5 10 27 10 10 10 Z " fill="#000000" transform="translate(40,40)"/>
<path d="M0 0 C3.3 0 6.6 0 10 0 C10 3.3 10 6.6 10 10 C26.5 10 43 10 60 10 C60 19.9 60 29.8 60 40 C56.7 40 53.4 40 50 40 C50 46.6 50 53.2 50 60 C46.7 60 43.4 60 40 60 C40 56.7 40 53.4 40 50 C36.7 50 33.4 50 30 50 C30 46.7 30 43.4 30 40 C33.3 40 36.6 40 40 40 C40 33.4 40 26.8 40 20 C36.7 20 33.4 20 30 20 C30 23.3 30 26.6 30 30 C26.7 30 23.4 30 20 30 C20 26.7 20 23.4 20 20 C16.7 20 13.4 20 10 20 C10 26.6 10 33.2 10 40 C0.1 40 -9.8 40 -20 40 C-20 36.7 -20 33.4 -20 30 C-13.4 30 -6.8 30 0 30 C0 26.7 0 23.4 0 20 C-3.3 20 -6.6 20 -10 20 C-10 16.7 -10 13.4 -10 10 C-6.7 10 -3.4 10 0 10 C0 6.7 0 3.4 0 0 Z " fill="#FFFFFF" transform="translate(110,140)"/>
<path d="M0 0 C6.6 0 13.2 0 20 0 C20 3.3 20 6.6 20 10 C16.7 10 13.4 10 10 10 C10 16.6 10 23.2 10 30 C13.3 30 16.6 30 20 30 C20 33.3 20 36.6 20 40 C26.6 40 33.2 40 40 40 C40 43.3 40 46.6 40 50 C30.1 50 20.2 50 10 50 C10 46.7 10 43.4 10 40 C6.7 40 3.4 40 0 40 C0 43.3 0 46.6 0 50 C-3.3 50 -6.6 50 -10 50 C-10 56.6 -10 63.2 -10 70 C-13.3 70 -16.6 70 -20 70 C-20 63.4 -20 56.8 -20 50 C-23.3 50 -26.6 50 -30 50 C-30 46.7 -30 43.4 -30 40 C-33.3 40 -36.6 40 -40 40 C-40 36.7 -40 33.4 -40 30 C-26.8 30 -13.6 30 0 30 C0 20.1 0 10.2 0 0 Z " fill="#FFFFFF" transform="translate(250,190)"/>
<path d="M0 0 C3.3 0 6.6 0 10 0 C10 3.3 10 6.6 10 10 C13.3 10 16.6 10 20 10 C20 13.3 20 16.6 20 20 C16.7 20 13.4 20 10 20 C10 23.3 10 26.6 10 30 C13.3 30 16.6 30 20 30 C20 33.3 20 36.6 20 40 C23.3 40 26.6 40 30 40 C30 53.2 30 66.4 30 80 C23.4 80 16.8 80 10 80 C10 70.1 10 60.2 10 50 C6.7 50 3.4 50 0 50 C0 46.7 0 43.4 0 40 C-3.3 40 -6.6 40 -10 40 C-10 36.7 -10 33.4 -10 30 C-6.7 30 -3.4 30 0 30 C0 20.1 0 10.2 0 0 Z " fill="#FFFFFF" transform="translate(180,110)"/>
<path d="M0 0 C6.6 0 13.2 0 20 0 C20 3.3 20 6.6 20 10 C26.6 10 33.2 10 40 10 C40 13.3 40 16.6 40 20 C33.4 20 26.8 20 20 20 C20 23.3 20 26.6 20 30 C16.7 30 13.4 30 10 30 C10 33.3 10 36.6 10 40 C13.3 40 16.6 40 20 40 C20 43.3 20 46.6 20 50 C13.4 50 6.8 50 0 50 C0 40.1 0 30.2 0 20 C-3.3 20 -6.6 20 -10 20 C-10 23.3 -10 26.6 -10 30 C-16.6 30 -23.2 30 -30 30 C-30 26.7 -30 23.4 -30 20 C-26.7 20 -23.4 20 -20 20 C-20 16.7 -20 13.4 -20 10 C-13.4 10 -6.8 10 0 10 C0 6.7 0 3.4 0 0 Z " fill="#000000" transform="translate(90,200)"/>
<path d="M0 0 C3.3 0 6.6 0 10 0 C10 3.3 10 6.6 10 10 C16.6 10 23.2 10 30 10 C30 13.3 30 16.6 30 20 C23.4 20 16.8 20 10 20 C10 23.3 10 26.6 10 30 C16.6 30 23.2 30 30 30 C30 43.2 30 56.4 30 70 C23.4 70 16.8 70 10 70 C10 63.4 10 56.8 10 50 C6.7 50 3.4 50 0 50 C0 33.5 0 17 0 0 Z " fill="#000000" transform="translate(220,40)"/>
<path d="M0 0 C3.3 0 6.6 0 10 0 C10 6.6 10 13.2 10 20 C13.3 20 16.6 20 20 20 C20 13.4 20 6.8 20 0 C23.3 0 26.6 0 30 0 C30 6.6 30 13.2 30 20 C36.6 20 43.2 20 50 20 C50 23.3 50 26.6 50 30 C46.7 30 43.4 30 40 30 C40 33.3 40 36.6 40 40 C36.7 40 33.4 40 30 40 C30 43.3 30 46.6 30 50 C26.7 50 23.4 50 20 50 C20 43.4 20 36.8 20 30 C16.7 30 13.4 30 10 30 C10 33.3 10 36.6 10 40 C6.7 40 3.4 40 0 40 C0 26.8 0 13.6 0 0 Z " fill="#000000" transform="translate(40,120)"/>
<path d="M0 0 C3.3 0 6.6 0 10 0 C10 6.6 10 13.2 10 20 C13.3 20 16.6 20 20 20 C20 23.3 20 26.6 20 30 C16.7 30 13.4 30 10 30 C10 33.3 10 36.6 10 40 C16.6 40 23.2 40 30 40 C30 43.3 30 46.6 30 50 C13.5 50 -3 50 -20 50 C-20 46.7 -20 43.4 -20 40 C-13.4 40 -6.8 40 0 40 C0 36.7 0 33.4 0 30 C-3.3 30 -6.6 30 -10 30 C-10 23.4 -10 16.8 -10 10 C-6.7 10 -3.4 10 0 10 C0 6.7 0 3.4 0 0 Z " fill="#000000" transform="translate(140,100)"/>
<path d="M0 0 C9.9 0 19.8 0 30 0 C30 9.9 30 19.8 30 30 C20.1 30 10.2 30 0 30 C0 20.1 0 10.2 0 0 Z " fill="#000000" transform="translate(60,280)"/>
<path d="M0 0 C9.9 0 19.8 0 30 0 C30 9.9 30 19.8 30 30 C20.1 30 10.2 30 0 30 C0 20.1 0 10.2 0 0 Z " fill="#FFFFFF" transform="translate(250,250)"/>
<path d="M0 0 C9.9 0 19.8 0 30 0 C30 9.9 30 19.8 30 30 C20.1 30 10.2 30 0 30 C0 20.1 0 10.2 0 0 Z " fill="#000000" transform="translate(280,60)"/>
<path d="M0 0 C9.9 0 19.8 0 30 0 C30 9.9 30 19.8 30 30 C20.1 30 10.2 30 0 30 C0 20.1 0 10.2 0 0 Z " fill="#000000" transform="translate(60,60)"/>
<path d="M0 0 C3.3 0 6.6 0 10 0 C10 3.3 10 6.6 10 10 C16.6 10 23.2 10 30 10 C30 13.3 30 16.6 30 20 C6.9 20 -16.2 20 -40 20 C-40 16.7 -40 13.4 -40 10 C-26.8 10 -13.6 10 0 10 C0 6.7 0 3.4 0 0 Z " fill="#000000" transform="translate(160,310)"/>
<path d="M0 0 C6.6 0 13.2 0 20 0 C20 3.3 20 6.6 20 10 C23.3 10 26.6 10 30 10 C30 13.3 30 16.6 30 20 C23.4 20 16.8 20 10 20 C10 23.3 10 26.6 10 30 C6.7 30 3.4 30 0 30 C0 26.7 0 23.4 0 20 C-6.6 20 -13.2 20 -20 20 C-20 16.7 -20 13.4 -20 10 C-13.4 10 -6.8 10 0 10 C0 6.7 0 3.4 0 0 Z " fill="#000000" transform="translate(140,40)"/>
<path d="M0 0 C3.3 0 6.6 0 10 0 C10 6.6 10 13.2 10 20 C6.7 20 3.4 20 0 20 C0 23.3 0 26.6 0 30 C-3.3 30 -6.6 30 -10 30 C-10 33.3 -10 36.6 -10 40 C-13.3 40 -16.6 40 -20 40 C-20 33.4 -20 26.8 -20 20 C-16.7 20 -13.4 20 -10 20 C-10 16.7 -10 13.4 -10 10 C-6.7 10 -3.4 10 0 10 C0 6.7 0 3.4 0 0 Z " fill="#FFFFFF" transform="translate(160,240)"/>
<path d="M0 0 C3.3 0 6.6 0 10 0 C10 3.3 10 6.6 10 10 C13.3 10 16.6 10 20 10 C20 19.9 20 29.8 20 40 C13.4 40 6.8 40 0 40 C0 36.7 0 33.4 0 30 C3.3 30 6.6 30 10 30 C10 26.7 10 23.4 10 20 C6.7 20 3.4 20 0 20 C0 13.4 0 6.8 0 0 Z " fill="#FFFFFF" transform="translate(150,100)"/>
<path d="M0 0 C3.3 0 6.6 0 10 0 C10 6.6 10 13.2 10 20 C13.3 20 16.6 20 20 20 C20 23.3 20 26.6 20 30 C10.1 30 0.2 30 -10 30 C-10 23.4 -10 16.8 -10 10 C-6.7 10 -3.4 10 0 10 C0 6.7 0 3.4 0 0 Z " fill="#000000" transform="translate(140,100)"/>
<path d="M0 0 C3.3 0 6.6 0 10 0 C10 13.2 10 26.4 10 40 C3.4 40 -3.2 40 -10 40 C-10 36.7 -10 33.4 -10 30 C-6.7 30 -3.4 30 0 30 C0 20.1 0 10.2 0 0 Z " fill="#000000" transform="translate(320,240)"/>
<path d="M0 0 C3.3 0 6.6 0 10 0 C10 6.6 10 13.2 10 20 C6.7 20 3.4 20 0 20 C0 23.3 0 26.6 0 30 C-3.3 30 -6.6 30 -10 30 C-10 23.4 -10 16.8 -10 10 C-6.7 10 -3.4 10 0 10 C0 6.7 0 3.4 0 0 Z " fill="#000000" transform="translate(320,210)"/>
<path d="M0 0 C3.3 0 6.6 0 10 0 C10 3.3 10 6.6 10 10 C13.3 10 16.6 10 20 10 C20 13.3 20 16.6 20 20 C13.4 20 6.8 20 0 20 C0 13.4 0 6.8 0 0 Z " fill="#000000" transform="translate(310,310)"/>
<path d="M0 0 C6.6 0 13.2 0 20 0 C20 6.6 20 13.2 20 20 C16.7 20 13.4 20 10 20 C10 16.7 10 13.4 10 10 C6.7 10 3.4 10 0 10 C0 6.7 0 3.4 0 0 Z " fill="#000000" transform="translate(310,290)"/>
<path d="M0 0 C3.3 0 6.6 0 10 0 C10 3.3 10 6.6 10 10 C13.3 10 16.6 10 20 10 C20 13.3 20 16.6 20 20 C13.4 20 6.8 20 0 20 C0 13.4 0 6.8 0 0 Z " fill="#000000" transform="translate(170,290)"/>
<path d="M0 0 C3.3 0 6.6 0 10 0 C10 3.3 10 6.6 10 10 C13.3 10 16.6 10 20 10 C20 13.3 20 16.6 20 20 C13.4 20 6.8 20 0 20 C0 13.4 0 6.8 0 0 Z " fill="#FFFFFF" transform="translate(230,280)"/>
<path d="M0 0 C3.3 0 6.6 0 10 0 C10 6.6 10 13.2 10 20 C3.4 20 -3.2 20 -10 20 C-10 16.7 -10 13.4 -10 10 C-6.7 10 -3.4 10 0 10 C0 6.7 0 3.4 0 0 Z " fill="#000000" transform="translate(130,220)"/>
<path d="M0 0 C3.3 0 6.6 0 10 0 C10 3.3 10 6.6 10 10 C13.3 10 16.6 10 20 10 C20 13.3 20 16.6 20 20 C13.4 20 6.8 20 0 20 C0 13.4 0 6.8 0 0 Z " fill="#FFFFFF" transform="translate(70,190)"/>
<path d="M0 0 C3.3 0 6.6 0 10 0 C10 3.3 10 6.6 10 10 C13.3 10 16.6 10 20 10 C20 13.3 20 16.6 20 20 C13.4 20 6.8 20 0 20 C0 13.4 0 6.8 0 0 Z " fill="#000000" transform="translate(90,150)"/>
<path d="M0 0 C6.6 0 13.2 0 20 0 C20 6.6 20 13.2 20 20 C16.7 20 13.4 20 10 20 C10 16.7 10 13.4 10 10 C6.7 10 3.4 10 0 10 C0 6.7 0 3.4 0 0 Z " fill="#000000" transform="translate(290,130)"/>
<path d="M0 0 C3.3 0 6.6 0 10 0 C10 9.9 10 19.8 10 30 C6.7 30 3.4 30 0 30 C0 20.1 0 10.2 0 0 Z " fill="#000000" transform="translate(170,110)"/>
<path d="M0 0 C6.6 0 13.2 0 20 0 C20 6.6 20 13.2 20 20 C16.7 20 13.4 20 10 20 C10 16.7 10 13.4 10 10 C6.7 10 3.4 10 0 10 C0 6.7 0 3.4 0 0 Z " fill="#000000" transform="translate(140,80)"/>
<path d="M0 0 C6.6 0 13.2 0 20 0 C20 3.3 20 6.6 20 10 C13.4 10 6.8 10 0 10 C0 6.7 0 3.4 0 0 Z " fill="#FFFFFF" transform="translate(170,310)"/>
<path d="M0 0 C3.3 0 6.6 0 10 0 C10 6.6 10 13.2 10 20 C6.7 20 3.4 20 0 20 C0 13.4 0 6.8 0 0 Z " fill="#FFFFFF" transform="translate(160,290)"/>
<path d="M0 0 C3.3 0 6.6 0 10 0 C10 6.6 10 13.2 10 20 C6.7 20 3.4 20 0 20 C0 13.4 0 6.8 0 0 Z " fill="#000000" transform="translate(130,260)"/>
<path d="M0 0 C6.6 0 13.2 0 20 0 C20 3.3 20 6.6 20 10 C13.4 10 6.8 10 0 10 C0 6.7 0 3.4 0 0 Z " fill="#000000" transform="translate(60,240)"/>
<path d="M0 0 C6.6 0 13.2 0 20 0 C20 3.3 20 6.6 20 10 C13.4 10 6.8 10 0 10 C0 6.7 0 3.4 0 0 Z " fill="#000000" transform="translate(110,210)"/>
<path d="M0 0 C3.3 0 6.6 0 10 0 C10 6.6 10 13.2 10 20 C6.7 20 3.4 20 0 20 C0 13.4 0 6.8 0 0 Z " fill="#FFFFFF" transform="translate(280,200)"/>
<path d="M0 0 C6.6 0 13.2 0 20 0 C20 3.3 20 6.6 20 10 C13.4 10 6.8 10 0 10 C0 6.7 0 3.4 0 0 Z " fill="#FFFFFF" transform="translate(90,190)"/>
<path d="M0 0 C3.3 0 6.6 0 10 0 C10 6.6 10 13.2 10 20 C6.7 20 3.4 20 0 20 C0 13.4 0 6.8 0 0 Z " fill="#000000" transform="translate(320,170)"/>
<path d="M0 0 C3.3 0 6.6 0 10 0 C10 6.6 10 13.2 10 20 C6.7 20 3.4 20 0 20 C0 13.4 0 6.8 0 0 Z " fill="#000000" transform="translate(320,130)"/>
<path d="M0 0 C3.3 0 6.6 0 10 0 C10 3.3 10 6.6 10 10 C6.7 10 3.4 10 0 10 C0 6.7 0 3.4 0 0 Z " fill="#FFFFFF" transform="translate(310,300)"/>
<path d="M0 0 C3.3 0 6.6 0 10 0 C10 3.3 10 6.6 10 10 C6.7 10 3.4 10 0 10 C0 6.7 0 3.4 0 0 Z " fill="#000000" transform="translate(120,300)"/>
<path d="M0 0 C3.3 0 6.6 0 10 0 C10 3.3 10 6.6 10 10 C6.7 10 3.4 10 0 10 C0 6.7 0 3.4 0 0 Z " fill="#FFFFFF" transform="translate(140,290)"/>
<path d="M0 0 C3.3 0 6.6 0 10 0 C10 3.3 10 6.6 10 10 C6.7 10 3.4 10 0 10 C0 6.7 0 3.4 0 0 Z " fill="#000000" transform="translate(130,290)"/>
<path d="M0 0 C3.3 0 6.6 0 10 0 C10 3.3 10 6.6 10 10 C6.7 10 3.4 10 0 10 C0 6.7 0 3.4 0 0 Z " fill="#FFFFFF" transform="translate(170,280)"/>
<path d="M0 0 C3.3 0 6.6 0 10 0 C10 3.3 10 6.6 10 10 C6.7 10 3.4 10 0 10 C0 6.7 0 3.4 0 0 Z " fill="#FFFFFF" transform="translate(130,280)"/>
<path d="M0 0 C3.3 0 6.6 0 10 0 C10 3.3 10 6.6 10 10 C6.7 10 3.4 10 0 10 C0 6.7 0 3.4 0 0 Z " fill="#000000" transform="translate(120,280)"/>
<path d="M0 0 C3.3 0 6.6 0 10 0 C10 3.3 10 6.6 10 10 C6.7 10 3.4 10 0 10 C0 6.7 0 3.4 0 0 Z " fill="#000000" transform="translate(260,260)"/>
<path d="M0 0 C3.3 0 6.6 0 10 0 C10 3.3 10 6.6 10 10 C6.7 10 3.4 10 0 10 C0 6.7 0 3.4 0 0 Z " fill="#000000" transform="translate(140,250)"/>
<path d="M0 0 C3.3 0 6.6 0 10 0 C10 3.3 10 6.6 10 10 C6.7 10 3.4 10 0 10 C0 6.7 0 3.4 0 0 Z " fill="#000000" transform="translate(120,250)"/>
<path d="M0 0 C3.3 0 6.6 0 10 0 C10 3.3 10 6.6 10 10 C6.7 10 3.4 10 0 10 C0 6.7 0 3.4 0 0 Z " fill="#000000" transform="translate(40,240)"/>
<path d="M0 0 C3.3 0 6.6 0 10 0 C10 3.3 10 6.6 10 10 C6.7 10 3.4 10 0 10 C0 6.7 0 3.4 0 0 Z " fill="#000000" transform="translate(50,230)"/>
<path d="M0 0 C3.3 0 6.6 0 10 0 C10 3.3 10 6.6 10 10 C6.7 10 3.4 10 0 10 C0 6.7 0 3.4 0 0 Z " fill="#FFFFFF" transform="translate(160,220)"/>
<path d="M0 0 C3.3 0 6.6 0 10 0 C10 3.3 10 6.6 10 10 C6.7 10 3.4 10 0 10 C0 6.7 0 3.4 0 0 Z " fill="#FFFFFF" transform="translate(50,220)"/>
<path d="M0 0 C3.3 0 6.6 0 10 0 C10 3.3 10 6.6 10 10 C6.7 10 3.4 10 0 10 C0 6.7 0 3.4 0 0 Z " fill="#000000" transform="translate(40,220)"/>
<path d="M0 0 C3.3 0 6.6 0 10 0 C10 3.3 10 6.6 10 10 C6.7 10 3.4 10 0 10 C0 6.7 0 3.4 0 0 Z " fill="#FFFFFF" transform="translate(100,210)"/>
<path d="M0 0 C3.3 0 6.6 0 10 0 C10 3.3 10 6.6 10 10 C6.7 10 3.4 10 0 10 C0 6.7 0 3.4 0 0 Z " fill="#FFFFFF" transform="translate(60,210)"/>
<path d="M0 0 C3.3 0 6.6 0 10 0 C10 3.3 10 6.6 10 10 C6.7 10 3.4 10 0 10 C0 6.7 0 3.4 0 0 Z " fill="#000000" transform="translate(50,210)"/>
<path d="M0 0 C3.3 0 6.6 0 10 0 C10 3.3 10 6.6 10 10 C6.7 10 3.4 10 0 10 C0 6.7 0 3.4 0 0 Z " fill="#FFFFFF" transform="translate(160,200)"/>
<path d="M0 0 C3.3 0 6.6 0 10 0 C10 3.3 10 6.6 10 10 C6.7 10 3.4 10 0 10 C0 6.7 0 3.4 0 0 Z " fill="#FFFFFF" transform="translate(50,200)"/>
<path d="M0 0 C3.3 0 6.6 0 10 0 C10 3.3 10 6.6 10 10 C6.7 10 3.4 10 0 10 C0 6.7 0 3.4 0 0 Z " fill="#000000" transform="translate(310,190)"/>
<path d="M0 0 C3.3 0 6.6 0 10 0 C10 3.3 10 6.6 10 10 C6.7 10 3.4 10 0 10 C0 6.7 0 3.4 0 0 Z " fill="#FFFFFF" transform="translate(180,190)"/>
<path d="M0 0 C3.3 0 6.6 0 10 0 C10 3.3 10 6.6 10 10 C6.7 10 3.4 10 0 10 C0 6.7 0 3.4 0 0 Z " fill="#FFFFFF" transform="translate(270,180)"/>
<path d="M0 0 C3.3 0 6.6 0 10 0 C10 3.3 10 6.6 10 10 C6.7 10 3.4 10 0 10 C0 6.7 0 3.4 0 0 Z " fill="#FFFFFF" transform="translate(260,170)"/>
<path d="M0 0 C3.3 0 6.6 0 10 0 C10 3.3 10 6.6 10 10 C6.7 10 3.4 10 0 10 C0 6.7 0 3.4 0 0 Z " fill="#000000" transform="translate(40,170)"/>
<path d="M0 0 C3.3 0 6.6 0 10 0 C10 3.3 10 6.6 10 10 C6.7 10 3.4 10 0 10 C0 6.7 0 3.4 0 0 Z " fill="#000000" transform="translate(300,160)"/>
<path d="M0 0 C3.3 0 6.6 0 10 0 C10 3.3 10 6.6 10 10 C6.7 10 3.4 10 0 10 C0 6.7 0 3.4 0 0 Z " fill="#000000" transform="translate(230,150)"/>
<path d="M0 0 C3.3 0 6.6 0 10 0 C10 3.3 10 6.6 10 10 C6.7 10 3.4 10 0 10 C0 6.7 0 3.4 0 0 Z " fill="#FFFFFF" transform="translate(220,150)"/>
<path d="M0 0 C3.3 0 6.6 0 10 0 C10 3.3 10 6.6 10 10 C6.7 10 3.4 10 0 10 C0 6.7 0 3.4 0 0 Z " fill="#FFFFFF" transform="translate(210,140)"/>
<path d="M0 0 C3.3 0 6.6 0 10 0 C10 3.3 10 6.6 10 10 C6.7 10 3.4 10 0 10 C0 6.7 0 3.4 0 0 Z " fill="#000000" transform="translate(100,140)"/>
<path d="M0 0 C3.3 0 6.6 0 10 0 C10 3.3 10 6.6 10 10 C6.7 10 3.4 10 0 10 C0 6.7 0 3.4 0 0 Z " fill="#000000" transform="translate(110,130)"/>
<path d="M0 0 C3.3 0 6.6 0 10 0 C10 3.3 10 6.6 10 10 C6.7 10 3.4 10 0 10 C0 6.7 0 3.4 0 0 Z " fill="#000000" transform="translate(310,120)"/>
<path d="M0 0 C3.3 0 6.6 0 10 0 C10 3.3 10 6.6 10 10 C6.7 10 3.4 10 0 10 C0 6.7 0 3.4 0 0 Z " fill="#000000" transform="translate(280,120)"/>
<path d="M0 0 C3.3 0 6.6 0 10 0 C10 3.3 10 6.6 10 10 C6.7 10 3.4 10 0 10 C0 6.7 0 3.4 0 0 Z " fill="#000000" transform="translate(150,120)"/>
<path d="M0 0 C3.3 0 6.6 0 10 0 C10 3.3 10 6.6 10 10 C6.7 10 3.4 10 0 10 C0 6.7 0 3.4 0 0 Z " fill="#FFFFFF" transform="translate(140,120)"/>
<path d="M0 0 C3.3 0 6.6 0 10 0 C10 3.3 10 6.6 10 10 C6.7 10 3.4 10 0 10 C0 6.7 0 3.4 0 0 Z " fill="#000000" transform="translate(100,120)"/>
<path d="M0 0 C3.3 0 6.6 0 10 0 C10 3.3 10 6.6 10 10 C6.7 10 3.4 10 0 10 C0 6.7 0 3.4 0 0 Z " fill="#000000" transform="translate(80,120)"/>
<path d="M0 0 C3.3 0 6.6 0 10 0 C10 3.3 10 6.6 10 10 C6.7 10 3.4 10 0 10 C0 6.7 0 3.4 0 0 Z " fill="#FFFFFF" transform="translate(200,110)"/>
<path d="M0 0 C3.3 0 6.6 0 10 0 C10 3.3 10 6.6 10 10 C6.7 10 3.4 10 0 10 C0 6.7 0 3.4 0 0 Z " fill="#000000" transform="translate(190,110)"/>
<path d="M0 0 C3.3 0 6.6 0 10 0 C10 3.3 10 6.6 10 10 C6.7 10 3.4 10 0 10 C0 6.7 0 3.4 0 0 Z " fill="#FFFFFF" transform="translate(230,100)"/>
<path d="M0 0 C3.3 0 6.6 0 10 0 C10 3.3 10 6.6 10 10 C6.7 10 3.4 10 0 10 C0 6.7 0 3.4 0 0 Z " fill="#FFFFFF" transform="translate(190,100)"/>
<path d="M0 0 C3.3 0 6.6 0 10 0 C10 3.3 10 6.6 10 10 C6.7 10 3.4 10 0 10 C0 6.7 0 3.4 0 0 Z " fill="#000000" transform="translate(160,100)"/>
<path d="M0 0 C3.3 0 6.6 0 10 0 C10 3.3 10 6.6 10 10 C6.7 10 3.4 10 0 10 C0 6.7 0 3.4 0 0 Z " fill="#000000" transform="translate(120,100)"/>
<path d="M0 0 C3.3 0 6.6 0 10 0 C10 3.3 10 6.6 10 10 C6.7 10 3.4 10 0 10 C0 6.7 0 3.4 0 0 Z " fill="#000000" transform="translate(120,80)"/>
<path d="M0 0 C3.3 0 6.6 0 10 0 C10 3.3 10 6.6 10 10 C6.7 10 3.4 10 0 10 C0 6.7 0 3.4 0 0 Z " fill="#000000" transform="translate(160,70)"/>
<path d="M0 0 C3.3 0 6.6 0 10 0 C10 3.3 10 6.6 10 10 C6.7 10 3.4 10 0 10 C0 6.7 0 3.4 0 0 Z " fill="#000000" transform="translate(130,70)"/>
</svg>
