<?xml version="1.0" encoding="UTF-8"?>
<svg version="1.1" xmlns="http://www.w3.org/2000/svg" width="330" height="330">
<path d="M0 0 C108.9 0 217.8 0 330 0 C330 108.9 330 217.8 330 330 C221.1 330 112.2 330 0 330 C0 221.1 0 112.2 0 0 Z " fill="#FFFFFF" transform="translate(0,0)"/>
<path d="M0 0 C3.3 0 6.6 0 10 0 C10 6.6 10 13.2 10 20 C13.3 20 16.6 20 20 20 C20 23.3 20 26.6 20 30 C23.3 30 26.6 30 30 30 C30 23.4 30 16.8 30 10 C36.6 10 43.2 10 50 10 C50 6.7 50 3.4 50 0 C53.3 0 56.6 0 60 0 C60 6.6 60 13.2 60 20 C63.3 20 66.6 20 70 20 C70 16.7 70 13.4 70 10 C73.3 10 76.6 10 80 10 C80 16.6 80 23.2 80 30 C73.4 30 66.8 30 60 30 C60 36.6 60 43.2 60 50 C63.3 50 66.6 50 70 50 C70 56.6 70 63.2 70 70 C73.3 70 76.6 70 80 70 C80 66.7 80 63.4 80 60 C96.5 60 113 60 130 60 C130 66.6 130 73.2 130 80 C133.3 80 136.6 80 140 80 C140 83.3 140 86.6 140 90 C143.3 90 146.6 90 150 90 C150 93.3 150 96.6 150 100 C153.3 100 156.6 100 160 100 C160 103.3 160 106.6 160 110 C156.7 110 153.4 110 150 110 C150 113.3 150 116.6 150 120 C146.7 120 143.4 120 140 120 C140 123.3 140 126.6 140 130 C143.3 130 146.6 130 150 130 C150 133.3 150 136.6 150 140 C146.7 140 143.4 140 140 140 C140 143.3 140 146.6 140 150 C133.4 150 126.8 150 120 150 C120 156.6 120 163.2 120 170 C126.6 170 133.2 170 140 170 C140 173.3 140 176.6 140 180 C146.6 180 153.2 180 160 180 C160 186.6 160 193.2 160 200 C156.7 200 153.4 200 150 200 C150 206.6 150 213.2 150 220 C153.3 220 156.6 220 160 220 C160 223.3 160 226.6 160 230 C150.1 230 140.2 230 130 230 C130 226.7 130 223.4 130 220 C120.1 220 110.2 220 100 220 C100 216.7 100 213.4 100 210 C93.4 210 86.8 210 80 210 C80 206.7 80 203.4 80 200 C66.8 200 53.6 200 40 200 C40 196.7 40 193.4 40 190 C36.7 190 33.4 190 30 190 C30 186.7 30 183.4 30 180 C26.7 180 23.4 180 20 180 C20 183.3 20 186.6 20 190 C16.7 190 13.4 190 10 190 C10 196.6 10 203.2 10 210 C6.7 210 3.4 210 0 210 C0 203.4 0 196.8 0 190 C-3.3 190 -6.6 190 -10 190 C-10 186.7 -10 183.4 -10 180 C-6.7 180 -3.4 180 0 180 C0 176.7 0 173.4 0 170 C-3.3 170 -6.6 170 -10 170 C-10 160.1 -10 150.2 -10 140 C-13.3 140 -16.6 140 -20 140 C-20 143.3 -20 146.6 -20 150 C-23.3 150 -26.6 150 -30 150 C-30 146.7 -30 143.4 -30 140 C-33.3 140 -36.6 140 -40 140 C-40 143.3 -40 146.6 -40 150 C-43.3 150 -46.6 150 -50 150 C-50 146.7 -50 143.4 -50 140 C-53.3 140 -56.6 140 -60 140 C-60 143.3 -60 146.6 -60 150 C-69.9 150 -79.8 150 -90 150 C-90 146.7 -90 143.4 -90 140 C-83.4 140 -76.8 140 -70 140 C-70 136.7 -70 133.4 -70 130 C-63.4 130 -56.8 130 -50 130 C-50 126.7 -50 123.4 -50 120 C-40.1 120 -30.2 120 -20 120 C-20 116.7 -20 113.4 -20 110 C-29.9 110 -39.8 110 -50 110 C-50 106.7 -50 103.4 -50 100 C-53.3 100 -56.6 100 -60 100 C-60 103.3 -60 106.6 -60 110 C-63.3 110 -66.6 110 -70 110 C-70 113.3 -70 116.6 -70 120 C-76.6 120 -83.2 120 -90 120 C-90 116.7 -90 113.4 -90 110 C-86.7 110 -83.4 110 -80 110 C-80 106.7 -80 103.4 -80 100 C-83.3 100 -86.6 100 -90 100 C-90 93.4 -90 86.8 -90 80 C-86.7 80 -83.4 80 -80 80 C-80 76.7 -80 73.4 -80 70 C-70.1 70 -60.2 70 -50 70 C-50 66.7 -50 63.4 -50 60 C-46.7 60 -43.4 60 -40 60 C-40 63.3 -40 66.6 -40 70 C-36.7 70 -33.4 70 -30 70 C-30 66.7 -30 63.4 -30 60 C-23.4 60 -16.8 60 -10 60 C-10 43.5 -10 27 -10 10 C-6.7 10 -3.4 10 0 10 C0 6.7 0 3.4 0 0 Z " fill="#FFFFFF" transform="translate(130,60)"/>
<path d="M0 0 C16.5 0 33 0 50 0 C50 6.6 50 13.2 50 20 C53.3 20 56.6 20 60 20 C60 23.3 60 26.6 60 30 C63.3 30 66.6 30 70 30 C70 33.3 70 36.6 70 40 C73.3 40 76.6 40 80 40 C80 43.3 80 46.6 80 50 C76.7 50 73.4 50 70 50 C70 53.3 70 56.6 70 60 C66.7 60 63.4 60 60 60 C60 63.3 60 66.6 60 70 C63.3 70 66.6 70 70 70 C70 73.3 70 76.6 70 80 C66.7 80 63.4 80 60 80 C60 83.3 60 86.6 60 90 C53.4 90 46.8 90 40 90 C40 96.6 40 103.2 40 110 C46.6 110 53.2 110 60 110 C60 113.3 60 116.6 60 120 C66.6 120 73.2 120 80 120 C80 126.6 80 133.2 80 140 C76.7 140 73.4 140 70 140 C70 146.6 70 153.2 70 160 C73.3 160 76.6 160 80 160 C80 163.3 80 166.6 80 170 C70.1 170 60.2 170 50 170 C50 166.7 50 163.4 50 160 C40.1 160 30.2 160 20 160 C20 156.7 20 153.4 20 150 C13.4 150 6.8 150 0 150 C0 146.7 0 143.4 0 140 C-13.2 140 -26.4 140 -40 140 C-40 136.7 -40 133.4 -40 130 C-43.3 130 -46.6 130 -50 130 C-50 126.7 -50 123.4 -50 120 C-53.3 120 -56.6 120 -60 120 C-60 123.3 -60 126.6 -60 130 C-63.3 130 -66.6 130 -70 130 C-70 136.6 -70 143.2 -70 150 C-73.3 150 -76.6 150 -80 150 C-80 143.4 -80 136.8 -80 130 C-83.3 130 -86.6 130 -90 130 C-90 126.7 -90 123.4 -90 120 C-86.7 120 -83.4 120 -80 120 C-80 116.7 -80 113.4 -80 110 C-83.3 110 -86.6 110 -90 110 C-90 100.1 -90 90.2 -90 80 C-86.7 80 -83.4 80 -80 80 C-80 73.4 -80 66.8 -80 60 C-76.7 60 -73.4 60 -70 60 C-70 63.3 -70 66.6 -70 70 C-66.7 70 -63.4 70 -60 70 C-60 73.3 -60 76.6 -60 80 C-56.7 80 -53.4 80 -50 80 C-50 83.3 -50 86.6 -50 90 C-46.7 90 -43.4 90 -40 90 C-40 86.7 -40 83.4 -40 80 C-36.7 80 -33.4 80 -30 80 C-30 76.7 -30 73.4 -30 70 C-26.7 70 -23.4 70 -20 70 C-20 73.3 -20 76.6 -20 80 C-6.8 80 6.4 80 20 80 C20 76.7 20 73.4 20 70 C16.7 70 13.4 70 10 70 C10 66.7 10 63.4 10 60 C16.6 60 23.2 60 30 60 C30 56.7 30 53.4 30 50 C33.3 50 36.6 50 40 50 C40 46.7 40 43.4 40 40 C43.3 40 46.6 40 50 40 C50 36.7 50 33.4 50 30 C46.7 30 43.4 30 40 30 C40 26.7 40 23.4 40 20 C33.4 20 26.8 20 20 20 C20 16.7 20 13.4 20 10 C13.4 10 6.8 10 0 10 C0 6.7 0 3.4 0 0 Z " fill="#000000" transform="translate(210,120)"/>
<path d="M0 0 C23.1 0 46.2 0 70 0 C70 23.1 70 46.2 70 70 C46.9 70 23.8 70 0 70 C0 46.9 0 23.8 0 0 Z " fill="#FFFFFF" transform="translate(40,220)"/>
<path d="M0 0 C23.1 0 46.2 0 70 0 C70 23.1 70 46.2 70 70 C46.9 70 23.8 70 0 70 C0 46.9 0 23.8 0 0 Z " fill="#FFFFFF" transform="translate(220,40)"/>
<path d="M0 0 C23.1 0 46.2 0 70 0 C70 23.1 70 46.2 70 70 C46.9 70 23.8 70 0 70 C0 46.9 0 23.8 0 0 Z " fill="#FFFFFF" transform="translate(40,40)"/>
<path d="M0 0 C6.6 0 13.2 0 20 0 C20 3.3 20 6.6 20 10 C26.6 10 33.2 10 40 10 C40 13.3 40 16.6 40 20 C43.3 20 46.6 20 50 20 C50 23.3 50 26.6 50 30 C46.7 30 43.4 30 40 30 C40 33.3 40 36.6 40 40 C36.7 40 33.4 40 30 40 C30 43.3 30 46.6 30 50 C23.4 50 16.8 50 10 50 C10 53.3 10 56.6 10 60 C13.3 60 16.6 60 20 60 C20 63.3 20 66.6 20 70 C6.8 70 -6.4 70 -20 70 C-20 60.1 -20 50.2 -20 40 C-23.3 40 -26.6 40 -30 40 C-30 33.4 -30 26.8 -30 20 C-23.4 20 -16.8 20 -10 20 C-10 16.7 -10 13.4 -10 10 C-6.7 10 -3.4 10 0 10 C0 6.7 0 3.4 0 0 Z " fill="#FFFFFF" transform="translate(210,130)"/>
<path d="M0 0 C3.3 0 6.6 0 10 0 C10 3.3 10 6.6 10 10 C13.3 10 16.6 10 20 10 C20 13.3 20 16.6 20 20 C23.3 20 26.6 20 30 20 C30 23.3 30 26.6 30 30 C23.4 30 16.8 30 10 30 C10 33.3 10 36.6 10 40 C16.6 40 23.2 40 30 40 C30 43.3 30 46.6 30 50 C20.1 50 10.2 50 0 50 C0 46.7 0 43.4 0 40 C-3.3 40 -6.6 40 -10 40 C-10 43.3 -10 46.6 -10 50 C-13.3 50 -16.6 50 -20 50 C-20 53.3 -20 56.6 -20 60 C-26.6 60 -33.2 60 -40 60 C-40 56.7 -40 53.4 -40 50 C-36.7 50 -33.4 50 -30 50 C-30 46.7 -30 43.4 -30 40 C-33.3 40 -36.6 40 -40 40 C-40 33.4 -40 26.8 -40 20 C-36.7 20 -33.4 20 -30 20 C-30 16.7 -30 13.4 -30 10 C-20.1 10 -10.2 10 0 10 C0 6.7 0 3.4 0 0 Z " fill="#000000" transform="translate(80,120)"/>
<path d="M0 0 C23.1 0 46.2 0 70 0 C70 23.1 70 46.2 70 70 C46.9 70 23.8 70 0 70 C0 46.9 0 23.8 0 0 Z M10 10 C10 26.5 10 43 10 60 C26.5 60 43 60 60 60 C60 43.5 60 27 60 10 C43.5 10 27 10 10 10 Z " fill="#000000" transform="translate(40,220)"/>
<path d="M0 0 C23.1 0 46.2 0 70 0 C70 23.1 70 46.2 70 70 C46.9 70 23.8 70 0 70 C0 46.9 0 23.8 0 0 Z M10 10 C10 26.5 10 43 10 60 C26.5 60 43 60 60 60 C60 43.5 60 27 60 10 C43.5 10 27 10 10 10 Z " fill="#000000" transform="translate(220,40)"/>
<path d="M0 0 C23.1 0 46.2 0 70 0 C70 23.1 70 46.2 70 70 C46.9 70 23.8 70 0 70 C0 46.9 0 23.8 0 0 Z M10 10 C10 26.5 10 43 10 60 C26.5 60 43 60 60 60 C60 43.5 60 27 60 10 C43.5 10 27 10 10 10 Z " fill="#000000" transform="translate(40,40)"/>
<path d="M0 0 C3.3 0 6.6 0 10 0 C10 6.6 10 13.2 10 20 C13.3 20 16.6 20 20 20 C20 23.3 20 26.6 20 30 C23.3 30 26.6 30 30 30 C30 33.3 30 36.6 30 40 C26.7 40 23.4 40 20 40 C20 46.6 20 53.2 20 60 C16.7 60 13.4 60 10 60 C10 53.4 10 46.8 10 40 C6.7 40 3.4 40 0 40 C0 56.5 0 73 0 90 C-3.3 90 -6.6 90 -10 90 C-10 83.4 -10 76.8 -10 70 C-16.6 70 -23.2 70 -30 70 C-30 66.7 -30 63.4 -30 60 C-23.4 60 -16.8 60 -10 60 C-10 43.5 -10 27 -10 10 C-6.7 10 -3.4 10 0 10 C0 6.7 0 3.4 0 0 Z " fill="#000000" transform="translate(130,60)"/>
<path d="M0 0 C16.5 0 33 0 50 0 C50 6.6 50 13.2 50 20 C53.3 20 56.6 20 60 20 C60 23.3 60 26.6 60 30 C63.3 30 66.6 30 70 30 C70 33.3 70 36.6 70 40 C73.3 40 76.6 40 80 40 C80 43.3 80 46.6 80 50 C76.7 50 73.4 50 70 50 C70 53.3 70 56.6 70 60 C66.7 60 63.4 60 60 60 C60 56.7 60 53.4 60 50 C53.4 50 46.8 50 40 50 C40 46.7 40 43.4 40 40 C43.3 40 46.6 40 50 40 C50 36.7 50 33.4 50 30 C46.7 30 43.4 30 40 30 C40 26.7 40 23.4 40 20 C33.4 20 26.8 20 20 20 C20 16.7 20 13.4 20 10 C13.4 10 6.8 10 0 10 C0 6.7 0 3.4 0 0 Z " fill="#000000" transform="translate(210,120)"/>
<path d="M0 0 C3.3 0 6.6 0 10 0 C10 9.9 10 19.8 10 30 C6.7 30 3.4 30 0 30 C0 33.3 0 36.6 0 40 C-3.3 40 -6.6 40 -10 40 C-10 36.7 -10 33.4 -10 30 C-13.3 30 -16.6 30 -20 30 C-20 33.3 -20 36.6 -20 40 C-23.3 40 -26.6 40 -30 40 C-30 36.7 -30 33.4 -30 30 C-33.3 30 -36.6 30 -40 30 C-40 33.3 -40 36.6 -40 40 C-49.9 40 -59.8 40 -70 40 C-70 36.7 -70 33.4 -70 30 C-63.4 30 -56.8 30 -50 30 C-50 26.7 -50 23.4 -50 20 C-43.4 20 -36.8 20 -30 20 C-30 16.7 -30 13.4 -30 10 C-20.1 10 -10.2 10 0 10 C0 6.7 0 3.4 0 0 Z " fill="#000000" transform="translate(110,170)"/>
<path d="M0 0 C3.3 0 6.6 0 10 0 C10 6.6 10 13.2 10 20 C13.3 20 16.6 20 20 20 C20 16.7 20 13.4 20 10 C23.3 10 26.6 10 30 10 C30 16.6 30 23.2 30 30 C23.4 30 16.8 30 10 30 C10 36.6 10 43.2 10 50 C13.3 50 16.6 50 20 50 C20 56.6 20 63.2 20 70 C13.4 70 6.8 70 0 70 C0 56.8 0 43.6 0 30 C-6.6 30 -13.2 30 -20 30 C-20 23.4 -20 16.8 -20 10 C-13.4 10 -6.8 10 0 10 C0 6.7 0 3.4 0 0 Z " fill="#000000" transform="translate(180,60)"/>
<path d="M0 0 C6.6 0 13.2 0 20 0 C20 3.3 20 6.6 20 10 C23.3 10 26.6 10 30 10 C30 13.3 30 16.6 30 20 C26.7 20 23.4 20 20 20 C20 23.3 20 26.6 20 30 C16.7 30 13.4 30 10 30 C10 33.3 10 36.6 10 40 C3.4 40 -3.2 40 -10 40 C-10 43.3 -10 46.6 -10 50 C-6.7 50 -3.4 50 0 50 C0 53.3 0 56.6 0 60 C-13.2 60 -26.4 60 -40 60 C-40 56.7 -40 53.4 -40 50 C-33.4 50 -26.8 50 -20 50 C-20 43.4 -20 36.8 -20 30 C-13.4 30 -6.8 30 0 30 C0 26.7 0 23.4 0 20 C3.3 20 6.6 20 10 20 C10 16.7 10 13.4 10 10 C6.7 10 3.4 10 0 10 C0 6.7 0 3.4 0 0 Z " fill="#FFFFFF" transform="translate(230,140)"/>
<path d="M0 0 C9.9 0 19.8 0 30 0 C30 3.3 30 6.6 30 10 C36.6 10 43.2 10 50 10 C50 13.3 50 16.6 50 20 C40.1 20 30.2 20 20 20 C20 16.7 20 13.4 20 10 C16.7 10 13.4 10 10 10 C10 13.3 10 16.6 10 20 C6.7 20 3.4 20 0 20 C0 23.3 0 26.6 0 30 C-6.6 30 -13.2 30 -20 30 C-20 26.7 -20 23.4 -20 20 C-16.7 20 -13.4 20 -10 20 C-10 16.7 -10 13.4 -10 10 C-6.7 10 -3.4 10 0 10 C0 6.7 0 3.4 0 0 Z " fill="#000000" transform="translate(60,150)"/>
<path d="M0 0 C9.9 0 19.8 0 30 0 C30 9.9 30 19.8 30 30 C26.7 30 23.4 30 20 30 C20 26.7 20 23.4 20 20 C16.7 20 13.4 20 10 20 C10 23.3 10 26.6 10 30 C3.4 30 -3.2 30 -10 30 C-10 23.4 -10 16.8 -10 10 C-6.7 10 -3.4 10 0 10 C0 6.7 0 3.4 0 0 Z " fill="#000000" transform="translate(140,140)"/>
<path d="M0 0 C9.9 0 19.8 0 30 0 C30 9.9 30 19.8 30 30 C20.1 30 10.2 30 0 30 C0 20.1 0 10.2 0 0 Z " fill="#000000" transform="translate(60,240)"/>
<path d="M0 0 C9.9 0 19.8 0 30 0 C30 9.9 30 19.8 30 30 C20.1 30 10.2 30 0 30 C0 20.1 0 10.2 0 0 Z " fill="#FFFFFF" transform="translate(210,210)"/>
<path d="M0 0 C9.9 0 19.8 0 30 0 C30 9.9 30 19.8 30 30 C20.1 30 10.2 30 0 30 C0 20.1 0 10.2 0 0 Z " fill="#000000" transform="translate(240,60)"/>
<path d="M0 0 C9.9 0 19.8 0 30 0 C30 9.9 30 19.8 30 30 C20.1 30 10.2 30 0 30 C0 20.1 0 10.2 0 0 Z " fill="#000000" transform="translate(60,60)"/>
<path d="M0 0 C3.3 0 6.6 0 10 0 C10 3.3 10 6.6 10 10 C13.3 10 16.6 10 20 10 C20 13.3 20 16.6 20 20 C23.3 20 26.6 20 30 20 C30 26.6 30 33.2 30 40 C23.4 40 16.8 40 10 40 C10 33.4 10 26.8 10 20 C6.7 20 3.4 20 0 20 C0 13.4 0 6.8 0 0 Z " fill="#000000" transform="translate(180,150)"/>
<path d="M0 0 C3.3 0 6.6 0 10 0 C10 3.3 10 6.6 10 10 C13.3 10 16.6 10 20 10 C20 13.3 20 16.6 20 20 C23.3 20 26.6 20 30 20 C30 23.3 30 26.6 30 30 C26.7 30 23.4 30 20 30 C20 33.3 20 36.6 20 40 C16.7 40 13.4 40 10 40 C10 33.4 10 26.8 10 20 C6.7 20 3.4 20 0 20 C0 13.4 0 6.8 0 0 Z " fill="#000000" transform="translate(130,180)"/>
<path d="M0 0 C3.3 0 6.6 0 10 0 C10 3.3 10 6.6 10 10 C13.3 10 16.6 10 20 10 C20 13.3 20 16.6 20 20 C16.7 20 13.4 20 10 20 C10 23.3 10 26.6 10 30 C3.4 30 -3.2 30 -10 30 C-10 23.4 -10 16.8 -10 10 C-6.7 10 -3.4 10 0 10 C0 6.7 0 3.4 0 0 Z " fill="#000000" transform="translate(220,140)"/>
<path d="M0 0 C3.3 0 6.6 0 10 0 C10 6.6 10 13.2 10 20 C13.3 20 16.6 20 20 20 C20 26.6 20 33.2 20 40 C13.4 40 6.8 40 0 40 C0 26.8 0 13.6 0 0 Z " fill="#000000" transform="translate(180,90)"/>
<path d="M0 0 C16.5 0 33 0 50 0 C50 6.6 50 13.2 50 20 C46.7 20 43.4 20 40 20 C40 16.7 40 13.4 40 10 C26.8 10 13.6 10 0 10 C0 6.7 0 3.4 0 0 Z " fill="#000000" transform="translate(160,40)"/>
<path d="M0 0 C6.6 0 13.2 0 20 0 C20 3.3 20 6.6 20 10 C16.7 10 13.4 10 10 10 C10 13.3 10 16.6 10 20 C3.4 20 -3.2 20 -10 20 C-10 16.7 -10 13.4 -10 10 C-6.7 10 -3.4 10 0 10 C0 6.7 0 3.4 0 0 Z " fill="#000000" transform="translate(180,270)"/>
<path d="M0 0 C6.6 0 13.2 0 20 0 C20 3.3 20 6.6 20 10 C16.7 10 13.4 10 10 10 C10 13.3 10 16.6 10 20 C3.4 20 -3.2 20 -10 20 C-10 16.7 -10 13.4 -10 10 C-6.7 10 -3.4 10 0 10 C0 6.7 0 3.4 0 0 Z " fill="#FFFFFF" transform="translate(240,250)"/>
<path d="M0 0 C6.6 0 13.2 0 20 0 C20 6.6 20 13.2 20 20 C13.4 20 6.8 20 0 20 C0 13.4 0 6.8 0 0 Z " fill="#FFFFFF" transform="translate(180,230)"/>
<path d="M0 0 C3.3 0 6.6 0 10 0 C10 3.3 10 6.6 10 10 C13.3 10 16.6 10 20 10 C20 13.3 20 16.6 20 20 C13.4 20 6.8 20 0 20 C0 13.4 0 6.8 0 0 Z " fill="#000000" transform="translate(140,270)"/>
<path d="M0 0 C3.3 0 6.6 0 10 0 C10 3.3 10 6.6 10 10 C13.3 10 16.6 10 20 10 C20 13.3 20 16.6 20 20 C13.4 20 6.8 20 0 20 C0 13.4 0 6.8 0 0 Z " fill="#000000" transform="translate(130,150)"/>
<path d="M0 0 C9.9 0 19.8 0 30 0 C30 3.3 30 6.6 30 10 C20.1 10 10.2 10 0 10 C0 6.7 0 3.4 0 0 Z " fill="#FFFFFF" transform="translate(60,140)"/>
<path d="M0 0 C3.3 0 6.6 0 10 0 C10 6.6 10 13.2 10 20 C3.4 20 -3.2 20 -10 20 C-10 16.7 -10 13.4 -10 10 C-6.7 10 -3.4 10 0 10 C0 6.7 0 3.4 0 0 Z " fill="#000000" transform="translate(200,70)"/>
<path d="M0 0 C6.6 0 13.2 0 20 0 C20 3.3 20 6.6 20 10 C13.4 10 6.8 10 0 10 C0 6.7 0 3.4 0 0 Z " fill="#000000" transform="translate(210,280)"/>
<path d="M0 0 C3.3 0 6.6 0 10 0 C10 6.6 10 13.2 10 20 C6.7 20 3.4 20 0 20 C0 13.4 0 6.8 0 0 Z " fill="#FFFFFF" transform="translate(130,200)"/>
<path d="M0 0 C6.6 0 13.2 0 20 0 C20 3.3 20 6.6 20 10 C13.4 10 6.8 10 0 10 C0 6.7 0 3.4 0 0 Z " fill="#FFFFFF" transform="translate(250,170)"/>
<path d="M0 0 C3.3 0 6.6 0 10 0 C10 6.6 10 13.2 10 20 C6.7 20 3.4 20 0 20 C0 13.4 0 6.8 0 0 Z " fill="#000000" transform="translate(160,100)"/>
<path d="M0 0 C3.3 0 6.6 0 10 0 C10 6.6 10 13.2 10 20 C6.7 20 3.4 20 0 20 C0 13.4 0 6.8 0 0 Z " fill="#FFFFFF" transform="translate(150,100)"/>
<path d="M0 0 C6.6 0 13.2 0 20 0 C20 3.3 20 6.6 20 10 C13.4 10 6.8 10 0 10 C0 6.7 0 3.4 0 0 Z " fill="#000000" transform="translate(120,40)"/>
<path d="M0 0 C3.3 0 6.6 0 10 0 C10 3.3 10 6.6 10 10 C6.7 10 3.4 10 0 10 C0 6.7 0 3.4 0 0 Z " fill="#000000" transform="translate(120,280)"/>
<path d="M0 0 C3.3 0 6.6 0 10 0 C10 3.3 10 6.6 10 10 C6.7 10 3.4 10 0 10 C0 6.7 0 3.4 0 0 Z " fill="#000000" transform="translate(160,270)"/>
<path d="M0 0 C3.3 0 6.6 0 10 0 C10 3.3 10 6.6 10 10 C6.7 10 3.4 10 0 10 C0 6.7 0 3.4 0 0 Z " fill="#FFFFFF" transform="translate(260,260)"/>
<path d="M0 0 C3.3 0 6.6 0 10 0 C10 3.3 10 6.6 10 10 C6.7 10 3.4 10 0 10 C0 6.7 0 3.4 0 0 Z " fill="#FFFFFF" transform="translate(160,230)"/>
<path d="M0 0 C3.3 0 6.6 0 10 0 C10 3.3 10 6.6 10 10 C6.7 10 3.4 10 0 10 C0 6.7 0 3.4 0 0 Z " fill="#000000" transform="translate(220,220)"/>
<path d="M0 0 C3.3 0 6.6 0 10 0 C10 3.3 10 6.6 10 10 C6.7 10 3.4 10 0 10 C0 6.7 0 3.4 0 0 Z " fill="#FFFFFF" transform="translate(140,220)"/>
<path d="M0 0 C3.3 0 6.6 0 10 0 C10 3.3 10 6.6 10 10 C6.7 10 3.4 10 0 10 C0 6.7 0 3.4 0 0 Z " fill="#FFFFFF" transform="translate(190,210)"/>
<path d="M0 0 C3.3 0 6.6 0 10 0 C10 3.3 10 6.6 10 10 C6.7 10 3.4 10 0 10 C0 6.7 0 3.4 0 0 Z " fill="#FFFFFF" transform="translate(170,210)"/>
<path d="M0 0 C3.3 0 6.6 0 10 0 C10 3.3 10 6.6 10 10 C6.7 10 3.4 10 0 10 C0 6.7 0 3.4 0 0 Z " fill="#FFFFFF" transform="translate(150,210)"/>
<path d="M0 0 C3.3 0 6.6 0 10 0 C10 3.3 10 6.6 10 10 C6.7 10 3.4 10 0 10 C0 6.7 0 3.4 0 0 Z " fill="#FFFFFF" transform="translate(160,200)"/>
<path d="M0 0 C3.3 0 6.6 0 10 0 C10 3.3 10 6.6 10 10 C6.7 10 3.4 10 0 10 C0 6.7 0 3.4 0 0 Z " fill="#000000" transform="translate(100,200)"/>
<path d="M0 0 C3.3 0 6.6 0 10 0 C10 3.3 10 6.6 10 10 C6.7 10 3.4 10 0 10 C0 6.7 0 3.4 0 0 Z " fill="#FFFFFF" transform="translate(250,190)"/>
<path d="M0 0 C3.3 0 6.6 0 10 0 C10 3.3 10 6.6 10 10 C6.7 10 3.4 10 0 10 C0 6.7 0 3.4 0 0 Z " fill="#000000" transform="translate(160,190)"/>
<path d="M0 0 C3.3 0 6.6 0 10 0 C10 3.3 10 6.6 10 10 C6.7 10 3.4 10 0 10 C0 6.7 0 3.4 0 0 Z " fill="#FFFFFF" transform="translate(100,190)"/>
<path d="M0 0 C3.3 0 6.6 0 10 0 C10 3.3 10 6.6 10 10 C6.7 10 3.4 10 0 10 C0 6.7 0 3.4 0 0 Z " fill="#FFFFFF" transform="translate(140,150)"/>
<path d="M0 0 C3.3 0 6.6 0 10 0 C10 3.3 10 6.6 10 10 C6.7 10 3.4 10 0 10 C0 6.7 0 3.4 0 0 Z " fill="#FFFFFF" transform="translate(50,150)"/>
<path d="M0 0 C3.3 0 6.6 0 10 0 C10 3.3 10 6.6 10 10 C6.7 10 3.4 10 0 10 C0 6.7 0 3.4 0 0 Z " fill="#000000" transform="translate(190,140)"/>
<path d="M0 0 C3.3 0 6.6 0 10 0 C10 3.3 10 6.6 10 10 C6.7 10 3.4 10 0 10 C0 6.7 0 3.4 0 0 Z " fill="#000000" transform="translate(270,130)"/>
<path d="M0 0 C3.3 0 6.6 0 10 0 C10 3.3 10 6.6 10 10 C6.7 10 3.4 10 0 10 C0 6.7 0 3.4 0 0 Z " fill="#000000" transform="translate(200,130)"/>
<path d="M0 0 C3.3 0 6.6 0 10 0 C10 3.3 10 6.6 10 10 C6.7 10 3.4 10 0 10 C0 6.7 0 3.4 0 0 Z " fill="#000000" transform="translate(280,120)"/>
<path d="M0 0 C3.3 0 6.6 0 10 0 C10 3.3 10 6.6 10 10 C6.7 10 3.4 10 0 10 C0 6.7 0 3.4 0 0 Z " fill="#000000" transform="translate(150,120)"/>
<path d="M0 0 C3.3 0 6.6 0 10 0 C10 3.3 10 6.6 10 10 C6.7 10 3.4 10 0 10 C0 6.7 0 3.4 0 0 Z " fill="#000000" transform="translate(40,120)"/>
<path d="M0 0 C3.3 0 6.6 0 10 0 C10 3.3 10 6.6 10 10 C6.7 10 3.4 10 0 10 C0 6.7 0 3.4 0 0 Z " fill="#000000" transform="translate(200,100)"/>
<path d="M0 0 C3.3 0 6.6 0 10 0 C10 3.3 10 6.6 10 10 C6.7 10 3.4 10 0 10 C0 6.7 0 3.4 0 0 Z " fill="#FFFFFF" transform="translate(180,80)"/>
<path d="M0 0 C3.3 0 6.6 0 10 0 C10 3.3 10 6.6 10 10 C6.7 10 3.4 10 0 10 C0 6.7 0 3.4 0 0 Z " fill="#FFFFFF" transform="translate(130,80)"/>
<path d="M0 0 C3.3 0 6.6 0 10 0 C10 3.3 10 6.6 10 10 C6.7 10 3.4 10 0 10 C0 6.7 0 3.4 0 0 Z " fill="#000000" transform="translate(150,60)"/>
</svg>
